%TF.GenerationSoftware,KiCad,Pcbnew,9.0.2-9.0.2-0~ubuntu24.04.1*%
%TF.CreationDate,2025-06-02T17:12:00+02:00*%
%TF.ProjectId,gandalf-RO,67616e64-616c-4662-9d52-4f2e6b696361,v1.0.0*%
%TF.SameCoordinates,Original*%
%TF.FileFunction,Profile,NP*%
%FSLAX46Y46*%
G04 Gerber Fmt 4.6, Leading zero omitted, Abs format (unit mm)*
G04 Created by KiCad (PCBNEW 9.0.2-9.0.2-0~ubuntu24.04.1) date 2025-06-02 17:12:00*
%MOMM*%
%LPD*%
G01*
G04 APERTURE LIST*
%TA.AperFunction,Profile*%
%ADD10C,0.150000*%
%TD*%
G04 APERTURE END LIST*
D10*
X309245505Y-38027460D02*
G75*
G02*
X311830877Y-40534296I-377705J-2976140D01*
G01*
X246005657Y-36328707D02*
X260735864Y-33995673D01*
X64941064Y-122042298D02*
G75*
G02*
X62447291Y-118609932I469336J2963098D01*
G01*
X206820449Y-48553806D02*
X228666220Y-42137484D01*
X241975940Y-39458003D02*
X244394665Y-37130211D01*
X62447297Y-118609933D02*
X74813264Y-40534291D01*
X85738834Y-176986619D02*
G75*
G02*
X82738881Y-173987799I-34J2999919D01*
G01*
X140638488Y-36328709D02*
G75*
G02*
X142249477Y-37130220I-469288J-2962991D01*
G01*
X146279204Y-40259505D02*
G75*
G02*
X144668217Y-39457995I469296J2963005D01*
G01*
X107391147Y-34221324D02*
G75*
G02*
X108238128Y-34234397I377653J-2976276D01*
G01*
X303923691Y-127419343D02*
X303905322Y-173987804D01*
X278406020Y-34234393D02*
G75*
G02*
X279253003Y-34221334I469280J-2963307D01*
G01*
X303905322Y-173987804D02*
G75*
G02*
X300905320Y-176986622I-3000022J1204D01*
G01*
X241975940Y-39458003D02*
G75*
G02*
X240364938Y-40259490I-2080240J2161503D01*
G01*
X311830887Y-40534294D02*
X324196848Y-118609926D01*
X108238129Y-34234392D02*
X119328964Y-35991006D01*
X303923691Y-127419343D02*
G75*
G02*
X306454391Y-124457512I2999909J-1157D01*
G01*
X146279204Y-40259505D02*
X157601819Y-42052835D01*
X321703085Y-122042294D02*
X306454382Y-124457457D01*
X260735866Y-33995674D02*
G75*
G02*
X262515699Y-34260110I469334J-2963026D01*
G01*
X206820449Y-48553806D02*
G75*
G02*
X205975034Y-48675401I-845449J2878406D01*
G01*
X180669117Y-48675398D02*
X205975034Y-48675393D01*
X229042338Y-42052825D02*
X240364940Y-40259502D01*
X228666220Y-42137484D02*
G75*
G02*
X229042337Y-42052821I845780J-2879616D01*
G01*
X300905323Y-176986620D02*
X85738834Y-176986619D01*
X279253004Y-34221323D02*
X309245505Y-38027460D01*
X77398648Y-38027461D02*
X107391147Y-34221324D01*
X121108794Y-35726554D02*
G75*
G02*
X119328963Y-35991015I-1310594J2698954D01*
G01*
X80189765Y-124457458D02*
G75*
G02*
X82720471Y-127419339I-469265J-2963042D01*
G01*
X82738826Y-173987799D02*
X82720461Y-127419339D01*
X125908288Y-33995668D02*
X140638488Y-36328709D01*
X157601819Y-42052835D02*
G75*
G02*
X157977932Y-42137477I-469019J-2962065D01*
G01*
X267315187Y-35991006D02*
X278406020Y-34234393D01*
X142249488Y-37130209D02*
X144668210Y-39458002D01*
X180669117Y-48675398D02*
G75*
G02*
X179823703Y-48553789I-17J2999298D01*
G01*
X267315187Y-35991006D02*
G75*
G02*
X265535361Y-35726560I-469287J2963206D01*
G01*
X244394665Y-37130211D02*
G75*
G02*
X246005659Y-36328724I2080235J-2161489D01*
G01*
X80189765Y-124457459D02*
X64941064Y-122042298D01*
X262515697Y-34260115D02*
X265535363Y-35726556D01*
X121108794Y-35726554D02*
X124128457Y-34260128D01*
X324196848Y-118609926D02*
G75*
G02*
X321703091Y-122042330I-2963148J-469274D01*
G01*
X74813264Y-40534291D02*
G75*
G02*
X77398652Y-38027490I2963136J-469409D01*
G01*
X124128457Y-34260128D02*
G75*
G02*
X125908289Y-33995664I1310543J-2698572D01*
G01*
X157977930Y-42137483D02*
X179823699Y-48553802D01*
M02*
