%TF.GenerationSoftware,KiCad,Pcbnew,9.0.2-9.0.2-0~ubuntu24.04.1*%
%TF.CreationDate,2025-06-02T17:12:00+02:00*%
%TF.ProjectId,gandalf-RO,67616e64-616c-4662-9d52-4f2e6b696361,v1.0.0*%
%TF.SameCoordinates,Original*%
%TF.FileFunction,Copper,L1,Top*%
%TF.FilePolarity,Positive*%
%FSLAX46Y46*%
G04 Gerber Fmt 4.6, Leading zero omitted, Abs format (unit mm)*
G04 Created by KiCad (PCBNEW 9.0.2-9.0.2-0~ubuntu24.04.1) date 2025-06-02 17:12:00*
%MOMM*%
%LPD*%
G01*
G04 APERTURE LIST*
G04 Aperture macros list*
%AMRoundRect*
0 Rectangle with rounded corners*
0 $1 Rounding radius*
0 $2 $3 $4 $5 $6 $7 $8 $9 X,Y pos of 4 corners*
0 Add a 4 corners polygon primitive as box body*
4,1,4,$2,$3,$4,$5,$6,$7,$8,$9,$2,$3,0*
0 Add four circle primitives for the rounded corners*
1,1,$1+$1,$2,$3*
1,1,$1+$1,$4,$5*
1,1,$1+$1,$6,$7*
1,1,$1+$1,$8,$9*
0 Add four rect primitives between the rounded corners*
20,1,$1+$1,$2,$3,$4,$5,0*
20,1,$1+$1,$4,$5,$6,$7,0*
20,1,$1+$1,$6,$7,$8,$9,0*
20,1,$1+$1,$8,$9,$2,$3,0*%
%AMRotRect*
0 Rectangle, with rotation*
0 The origin of the aperture is its center*
0 $1 length*
0 $2 width*
0 $3 Rotation angle, in degrees counterclockwise*
0 Add horizontal line*
21,1,$1,$2,0,0,$3*%
G04 Aperture macros list end*
%TA.AperFunction,SMDPad,CuDef*%
%ADD10RotRect,1.550000X1.000000X197.000000*%
%TD*%
%TA.AperFunction,ComponentPad*%
%ADD11C,1.700000*%
%TD*%
%TA.AperFunction,ComponentPad*%
%ADD12O,1.700000X1.700000*%
%TD*%
%TA.AperFunction,ComponentPad*%
%ADD13C,3.800000*%
%TD*%
%TA.AperFunction,SMDPad,CuDef*%
%ADD14RotRect,1.000000X0.800000X163.000000*%
%TD*%
%TA.AperFunction,SMDPad,CuDef*%
%ADD15RotRect,0.700000X1.500000X163.000000*%
%TD*%
%TA.AperFunction,ComponentPad*%
%ADD16C,1.900000*%
%TD*%
%TA.AperFunction,ComponentPad*%
%ADD17C,3.000000*%
%TD*%
%TA.AperFunction,ComponentPad*%
%ADD18C,5.000000*%
%TD*%
%TA.AperFunction,ComponentPad*%
%ADD19RoundRect,0.240000X-0.360000X-0.635000X0.360000X-0.635000X0.360000X0.635000X-0.360000X0.635000X0*%
%TD*%
%TA.AperFunction,ComponentPad*%
%ADD20O,1.200000X1.750000*%
%TD*%
%TA.AperFunction,ViaPad*%
%ADD21C,0.600000*%
%TD*%
%TA.AperFunction,Conductor*%
%ADD22C,0.200000*%
%TD*%
G04 APERTURE END LIST*
D10*
%TO.P,RST1,1*%
%TO.N,GND*%
X212481289Y-48017964D03*
%TO.P,RST1,2*%
%TO.N,RST*%
X212978316Y-49643686D03*
%TO.P,RST1,3*%
%TO.N,GND*%
X207460690Y-49552918D03*
%TO.P,RST1,4*%
%TO.N,RST*%
X207957717Y-51178640D03*
%TD*%
D11*
%TO.P,MCU1,1*%
%TO.N,CLO*%
X200942077Y-53925993D03*
%TO.P,MCU1,2*%
%TO.N,CID*%
X200942077Y-56465995D03*
%TO.P,MCU1,3*%
%TO.N,GND*%
X200942077Y-59005995D03*
%TO.P,MCU1,4*%
X200942076Y-61545995D03*
%TO.P,MCU1,5*%
%TO.N,SDA*%
X200942077Y-64085995D03*
%TO.P,MCU1,6*%
%TO.N,SCL*%
X200942077Y-66625995D03*
%TO.P,MCU1,7*%
%TO.N,CIN*%
X200942077Y-69165995D03*
%TO.P,MCU1,8*%
%TO.N,RNU*%
X200942077Y-71705995D03*
%TO.P,MCU1,9*%
%TO.N,RTO*%
X200942077Y-74245995D03*
%TO.P,MCU1,10*%
%TO.N,RHO*%
X200942077Y-76785995D03*
%TO.P,MCU1,11*%
%TO.N,RBO*%
X200942077Y-79325997D03*
%TO.P,MCU1,12*%
%TO.N,RUP*%
X200942077Y-81865994D03*
%TO.P,MCU1,13*%
%TO.N,LUP*%
X185702077Y-81865995D03*
%TO.P,MCU1,14*%
%TO.N,LBO*%
X185702077Y-79325997D03*
%TO.P,MCU1,15*%
%TO.N,LHO*%
X185702077Y-76785995D03*
%TO.P,MCU1,16*%
%TO.N,LTO*%
X185702077Y-74245995D03*
%TO.P,MCU1,17*%
%TO.N,LNU*%
X185702078Y-71705995D03*
%TO.P,MCU1,18*%
%TO.N,CMI*%
X185702077Y-69165995D03*
%TO.P,MCU1,19*%
%TO.N,CRN*%
X185702077Y-66625995D03*
%TO.P,MCU1,20*%
%TO.N,CPN*%
X185702077Y-64085995D03*
%TO.P,MCU1,21*%
%TO.N,VCC*%
X185702077Y-61545995D03*
%TO.P,MCU1,22*%
%TO.N,RST*%
X185702077Y-59005995D03*
%TO.P,MCU1,23*%
%TO.N,GND*%
X185702077Y-56465995D03*
%TO.P,MCU1,24*%
%TO.N,RAW*%
X185702077Y-53925993D03*
%TD*%
D12*
%TO.P,DISP1,1*%
%TO.N,SDA*%
X189512074Y-120858148D03*
%TO.P,DISP1,2*%
%TO.N,SCL*%
X192052074Y-120858150D03*
%TO.P,DISP1,3*%
%TO.N,VCC*%
X194592074Y-120858150D03*
%TO.P,DISP1,4*%
%TO.N,GND*%
X197132074Y-120858148D03*
%TD*%
D13*
%TO.P,H1,*%
%TO.N,*%
X77540174Y-51444051D03*
%TD*%
%TO.P,H6,*%
%TO.N,*%
X210132652Y-132929799D03*
%TD*%
%TO.P,H3,*%
%TO.N,*%
X68623409Y-107742294D03*
%TD*%
%TO.P,H2,*%
%TO.N,*%
X309103977Y-51444049D03*
%TD*%
D14*
%TO.P,PWR1,*%
%TO.N,*%
X172211768Y-49568744D03*
X179192788Y-51703051D03*
X179838934Y-49589621D03*
X172857910Y-47455306D03*
D15*
%TO.P,PWR1,1*%
%TO.N,N/C*%
X177663923Y-51915336D03*
%TO.P,PWR1,2*%
%TO.N,RAW*%
X174795017Y-51038217D03*
%TO.P,PWR1,3*%
%TO.N,BAT_P*%
X173360548Y-50599662D03*
%TD*%
D13*
%TO.P,H4,*%
%TO.N,*%
X318020734Y-107742287D03*
%TD*%
%TO.P,H5,*%
%TO.N,*%
X176511493Y-132929800D03*
%TD*%
D16*
%TO.P,S35,*%
%TO.N,*%
X246106626Y-75596365D03*
X245691796Y-75662068D03*
D17*
X242388382Y-71041953D03*
X241605126Y-82333499D03*
D18*
X240674340Y-76456754D03*
D17*
X236513904Y-74544041D03*
X236322528Y-80942758D03*
D16*
X235656884Y-77251440D03*
X235242054Y-77317143D03*
%TD*%
%TO.P,S33,*%
%TO.N,*%
X252051136Y-113128520D03*
X251636306Y-113194223D03*
D17*
X248332892Y-108574108D03*
X247549636Y-119865654D03*
D18*
X246618850Y-113988909D03*
D17*
X242458414Y-112076196D03*
X242267038Y-118474913D03*
D16*
X241601394Y-114783595D03*
X241186564Y-114849298D03*
%TD*%
%TO.P,S19,*%
%TO.N,*%
X169698869Y-83252462D03*
X169284040Y-83186758D03*
D17*
X167569999Y-77771959D03*
X163335799Y-88268817D03*
D18*
X164266584Y-82392072D03*
D17*
X160900835Y-79287328D03*
X158741513Y-85313731D03*
D16*
X159249128Y-81597386D03*
X158834299Y-81531682D03*
%TD*%
%TO.P,S21,*%
%TO.N,*%
X309131546Y-109150199D03*
X308716716Y-109215902D03*
D17*
X305413302Y-104595787D03*
X304630046Y-115887333D03*
D18*
X303699260Y-110010588D03*
D17*
X299538824Y-108097875D03*
X299347448Y-114496592D03*
D16*
X298681804Y-110805274D03*
X298266974Y-110870977D03*
%TD*%
%TO.P,S41,*%
%TO.N,*%
X110302751Y-157402297D03*
X109883327Y-157380316D03*
D17*
X107612675Y-152174344D03*
X104498890Y-163056295D03*
D18*
X104810289Y-157114449D03*
D17*
X101138443Y-154378529D03*
X99620881Y-160597631D03*
D16*
X99737251Y-156848582D03*
X99317827Y-156826601D03*
%TD*%
%TO.P,S39,*%
%TO.N,*%
X227809853Y-81531689D03*
X227395023Y-81597392D03*
D17*
X224091609Y-76977277D03*
X223308353Y-88268823D03*
D18*
X222377567Y-82392078D03*
D17*
X218217131Y-80479365D03*
X218025755Y-86878082D03*
D16*
X217360111Y-83186764D03*
X216945281Y-83252467D03*
%TD*%
%TO.P,S25,*%
%TO.N,*%
X289583294Y-107184013D03*
X289168464Y-107249716D03*
D17*
X285865050Y-102629601D03*
X285081794Y-113921147D03*
D18*
X284151008Y-108044402D03*
D17*
X279990572Y-106131689D03*
X279799196Y-112530406D03*
D16*
X279133552Y-108839088D03*
X278718722Y-108904791D03*
%TD*%
%TO.P,S49,*%
%TO.N,*%
X287326328Y-156826607D03*
X286906904Y-156848588D03*
D17*
X284104519Y-151908483D03*
X282145266Y-163056297D03*
D18*
X281833866Y-157114455D03*
D17*
X277896154Y-154777336D03*
X277036978Y-161120995D03*
D16*
X276760828Y-157380322D03*
X276341404Y-157402303D03*
%TD*%
%TO.P,S2,*%
%TO.N,*%
X91349427Y-92104904D03*
X90934598Y-92039200D03*
D17*
X89220557Y-86624401D03*
X84986357Y-97121259D03*
D18*
X85917142Y-91244514D03*
D17*
X82551393Y-88139770D03*
X80392071Y-94166173D03*
D16*
X80899686Y-90449828D03*
X80484857Y-90384124D03*
%TD*%
%TO.P,S5,*%
%TO.N,*%
X107925428Y-108904791D03*
X107510599Y-108839087D03*
D17*
X105796558Y-103424288D03*
X101562358Y-113921146D03*
D18*
X102493143Y-108044401D03*
D17*
X99127394Y-104939657D03*
X96968072Y-110966060D03*
D16*
X97475687Y-107249715D03*
X97060858Y-107184011D03*
%TD*%
%TO.P,S24,*%
%TO.N,*%
X300214779Y-52851961D03*
X299799949Y-52917664D03*
D17*
X296496535Y-48297549D03*
X295713279Y-59589095D03*
D18*
X294782493Y-53712350D03*
D17*
X290622057Y-51799637D03*
X290430681Y-58198354D03*
D16*
X289765037Y-54507036D03*
X289350207Y-54572739D03*
%TD*%
%TO.P,S42,*%
%TO.N,*%
X111297130Y-138428340D03*
X110877706Y-138406359D03*
D17*
X108607054Y-133200387D03*
X105493269Y-144082338D03*
D18*
X105804668Y-138140492D03*
D17*
X102132822Y-135404572D03*
X100615260Y-141623674D03*
D16*
X100731630Y-137874625D03*
X100312206Y-137852644D03*
%TD*%
%TO.P,S4,*%
%TO.N,*%
X97293942Y-54572741D03*
X96879113Y-54507037D03*
D17*
X95165072Y-49092238D03*
X90930872Y-59589096D03*
D18*
X91861657Y-53712351D03*
D17*
X88495908Y-50607607D03*
X86336586Y-56634010D03*
D16*
X86844201Y-52917665D03*
X86429372Y-52851961D03*
%TD*%
%TO.P,S46,*%
%TO.N,*%
X149245059Y-140417107D03*
X148825635Y-140395126D03*
D17*
X146554983Y-135189154D03*
X143441198Y-146071105D03*
D18*
X143752597Y-140129259D03*
D17*
X140080751Y-137393339D03*
X138563189Y-143612441D03*
D16*
X138679559Y-139863392D03*
X138260135Y-139841411D03*
%TD*%
%TO.P,S48,*%
%TO.N,*%
X168219017Y-141411493D03*
X167799593Y-141389512D03*
D17*
X165528941Y-136183540D03*
X162415156Y-147065491D03*
D18*
X162726555Y-141123645D03*
D17*
X159054709Y-138387725D03*
X157537147Y-144606827D03*
D16*
X157653517Y-140857778D03*
X157234093Y-140835797D03*
%TD*%
%TO.P,S10,*%
%TO.N,*%
X130133066Y-90147907D03*
X129718237Y-90082203D03*
D17*
X128004196Y-84667404D03*
X123769996Y-95164262D03*
D18*
X124700781Y-89287517D03*
D17*
X121335032Y-86182773D03*
X119175710Y-92209176D03*
D16*
X119683325Y-88492831D03*
X119268496Y-88427127D03*
%TD*%
%TO.P,S20,*%
%TO.N,*%
X172671124Y-64486389D03*
X172256295Y-64420685D03*
D17*
X170542254Y-59005886D03*
X166308054Y-69502744D03*
D18*
X167238839Y-63625999D03*
D17*
X163873090Y-60521255D03*
X161713768Y-66547658D03*
D16*
X162221383Y-62831313D03*
X161806554Y-62765609D03*
%TD*%
%TO.P,S31,*%
%TO.N,*%
X264403401Y-69661045D03*
X263988571Y-69726748D03*
D17*
X260685157Y-65106633D03*
X259901901Y-76398179D03*
D18*
X258971115Y-70521434D03*
D17*
X254810679Y-68608721D03*
X254619303Y-75007438D03*
D16*
X253953659Y-71316120D03*
X253538829Y-71381823D03*
%TD*%
D19*
%TO.P,JST1,1*%
%TO.N,GND*%
X194322071Y-89873309D03*
D20*
%TO.P,JST1,2*%
%TO.N,BAT_P*%
X192322071Y-89873309D03*
%TD*%
D16*
%TO.P,S26,*%
%TO.N,*%
X286611037Y-88417931D03*
X286196207Y-88483634D03*
D17*
X282892793Y-83863519D03*
X282109537Y-95155065D03*
D18*
X281178751Y-89278320D03*
D17*
X277018315Y-87365607D03*
X276826939Y-93764324D03*
D16*
X276161295Y-90073006D03*
X275746465Y-90138709D03*
%TD*%
%TO.P,S40,*%
%TO.N,*%
X224837600Y-62765604D03*
X224422770Y-62831307D03*
D17*
X221119356Y-58211192D03*
X220336100Y-69502738D03*
D18*
X219405314Y-63625993D03*
D17*
X215244878Y-61713280D03*
X215053502Y-68111997D03*
D16*
X214387858Y-64420679D03*
X213973028Y-64486382D03*
%TD*%
%TO.P,S22,*%
%TO.N,*%
X306159293Y-90384124D03*
X305744463Y-90449827D03*
D17*
X302441049Y-85829712D03*
X301657793Y-97121258D03*
D18*
X300727007Y-91244513D03*
D17*
X296566571Y-89331800D03*
X296375195Y-95730517D03*
D16*
X295709551Y-92039199D03*
X295294721Y-92104902D03*
%TD*%
%TO.P,S52,*%
%TO.N,*%
X267357982Y-138847025D03*
X266938558Y-138869006D03*
D17*
X264136173Y-133928901D03*
X262176920Y-145076715D03*
D18*
X261865520Y-139134873D03*
D17*
X257927808Y-136797754D03*
X257068632Y-143141413D03*
D16*
X256792482Y-139400740D03*
X256373058Y-139422721D03*
%TD*%
%TO.P,S43,*%
%TO.N,*%
X129276707Y-158396681D03*
X128857283Y-158374700D03*
D17*
X126586631Y-153168728D03*
X123472846Y-164050679D03*
D18*
X123784245Y-158108833D03*
D17*
X120112399Y-155372913D03*
X118594837Y-161592015D03*
D16*
X118711207Y-157842966D03*
X118291783Y-157820985D03*
%TD*%
%TO.P,S1,*%
%TO.N,*%
X88377173Y-110870973D03*
X87962344Y-110805269D03*
D17*
X86248303Y-105390470D03*
X82014103Y-115887328D03*
D18*
X82944888Y-110010583D03*
D17*
X79579139Y-106905839D03*
X77419817Y-112932242D03*
D16*
X77927432Y-109215897D03*
X77512603Y-109150193D03*
%TD*%
%TO.P,S54,*%
%TO.N,*%
X248384017Y-139841413D03*
X247964593Y-139863394D03*
D17*
X245162208Y-134923289D03*
X243202955Y-146071103D03*
D18*
X242891555Y-140129261D03*
D17*
X238953843Y-137792142D03*
X238094667Y-144135801D03*
D16*
X237818517Y-140395128D03*
X237399093Y-140417109D03*
%TD*%
%TO.P,S29,*%
%TO.N,*%
X270347912Y-107193197D03*
X269933082Y-107258900D03*
D17*
X266629668Y-102638785D03*
X265846412Y-113930331D03*
D18*
X264915626Y-108053586D03*
D17*
X260755190Y-106140873D03*
X260563814Y-112539590D03*
D16*
X259898170Y-108848272D03*
X259483340Y-108913975D03*
%TD*%
%TO.P,S7,*%
%TO.N,*%
X113869936Y-71372631D03*
X113455107Y-71306927D03*
D17*
X111741066Y-65892128D03*
X107506866Y-76388986D03*
D18*
X108437651Y-70512241D03*
D17*
X105071902Y-67407497D03*
X102912580Y-73433900D03*
D16*
X103420195Y-69717555D03*
X103005366Y-69651851D03*
%TD*%
%TO.P,S45,*%
%TO.N,*%
X148250677Y-159391069D03*
X147831253Y-159369088D03*
D17*
X145560601Y-154163116D03*
X142446816Y-165045067D03*
D18*
X142758215Y-159103221D03*
D17*
X139086369Y-156367301D03*
X137568807Y-162586403D03*
D16*
X137685177Y-158837354D03*
X137265753Y-158815373D03*
%TD*%
%TO.P,S17,*%
%TO.N,*%
X163754355Y-120784621D03*
X163339526Y-120718917D03*
D17*
X161625485Y-115304118D03*
X157391285Y-125800976D03*
D18*
X158322070Y-119924231D03*
D17*
X154956321Y-116819487D03*
X152796999Y-122845890D03*
D16*
X153304614Y-119129545D03*
X152889785Y-119063841D03*
%TD*%
%TO.P,S56,*%
%TO.N,*%
X229410061Y-140835788D03*
X228990637Y-140857769D03*
D17*
X226188252Y-135917664D03*
X224228999Y-147065478D03*
D18*
X223917599Y-141123636D03*
D17*
X219979887Y-138786517D03*
X219120711Y-145130176D03*
D16*
X218844561Y-141389503D03*
X218425137Y-141411484D03*
%TD*%
%TO.P,S23,*%
%TO.N,*%
X303187031Y-71618044D03*
X302772201Y-71683747D03*
D17*
X299468787Y-67063632D03*
X298685531Y-78355178D03*
D18*
X297754745Y-72478433D03*
D17*
X293594309Y-70565720D03*
X293402933Y-76964437D03*
D16*
X292737289Y-73273119D03*
X292322459Y-73338822D03*
%TD*%
%TO.P,S47,*%
%TO.N,*%
X167224635Y-160385446D03*
X166805211Y-160363465D03*
D17*
X164534559Y-155157493D03*
X161420774Y-166039444D03*
D18*
X161732173Y-160097598D03*
D17*
X158060327Y-157361678D03*
X156542765Y-163580780D03*
D16*
X156659135Y-159831731D03*
X156239711Y-159809750D03*
%TD*%
%TO.P,S13,*%
%TO.N,*%
X145457581Y-114849299D03*
X145042752Y-114783595D03*
D17*
X143328711Y-109368796D03*
X139094511Y-119865654D03*
D18*
X140025296Y-113988909D03*
D17*
X136659547Y-110884165D03*
X134500225Y-116910568D03*
D16*
X135007840Y-113194223D03*
X134593011Y-113128519D03*
%TD*%
%TO.P,S6,*%
%TO.N,*%
X110897684Y-90138704D03*
X110482855Y-90073000D03*
D17*
X108768814Y-84658201D03*
X104534614Y-95155059D03*
D18*
X105465399Y-89278314D03*
D17*
X102099650Y-86173570D03*
X99940328Y-92199973D03*
D16*
X100447943Y-88483628D03*
X100033114Y-88417924D03*
%TD*%
%TO.P,S27,*%
%TO.N,*%
X283638783Y-69651852D03*
X283223953Y-69717555D03*
D17*
X279920539Y-65097440D03*
X279137283Y-76388986D03*
D18*
X278206497Y-70512241D03*
D17*
X274046061Y-68599528D03*
X273854685Y-74998245D03*
D16*
X273189041Y-71306927D03*
X272774211Y-71372630D03*
%TD*%
%TO.P,S32,*%
%TO.N,*%
X261431148Y-50894963D03*
X261016318Y-50960666D03*
D17*
X257712904Y-46340551D03*
X256929648Y-57632097D03*
D18*
X255998862Y-51755352D03*
D17*
X251838426Y-49842639D03*
X251647050Y-56241356D03*
D16*
X250981406Y-52550038D03*
X250566576Y-52615741D03*
%TD*%
%TO.P,S16,*%
%TO.N,*%
X154374347Y-58551068D03*
X153959518Y-58485364D03*
D17*
X152245477Y-53070565D03*
X148011277Y-63567423D03*
D18*
X148942062Y-57690678D03*
D17*
X145576313Y-54585934D03*
X143416991Y-60612337D03*
D16*
X143924606Y-56895992D03*
X143509777Y-56830288D03*
%TD*%
%TO.P,S55,*%
%TO.N,*%
X230404442Y-159809751D03*
X229985018Y-159831732D03*
D17*
X227182633Y-154891627D03*
X225223380Y-166039441D03*
D18*
X224911980Y-160097599D03*
D17*
X220974268Y-157760480D03*
X220115092Y-164104139D03*
D16*
X219838942Y-160363466D03*
X219419518Y-160385447D03*
%TD*%
%TO.P,S12,*%
%TO.N,*%
X136077569Y-52615750D03*
X135662740Y-52550046D03*
D17*
X133948699Y-47135247D03*
X129714499Y-57632105D03*
D18*
X130645284Y-51755360D03*
D17*
X127279535Y-48650616D03*
X125120213Y-54677019D03*
D16*
X125627828Y-50960674D03*
X125212999Y-50894970D03*
%TD*%
%TO.P,S44,*%
%TO.N,*%
X130271102Y-139422724D03*
X129851678Y-139400743D03*
D17*
X127581026Y-134194771D03*
X124467241Y-145076722D03*
D18*
X124778640Y-139134876D03*
D17*
X121106794Y-136398956D03*
X119589232Y-142618058D03*
D16*
X119705602Y-138869009D03*
X119286178Y-138847028D03*
%TD*%
%TO.P,S37,*%
%TO.N,*%
X233754366Y-119063843D03*
X233339536Y-119129546D03*
D17*
X230036122Y-114509431D03*
X229252866Y-125800977D03*
D18*
X228322080Y-119924232D03*
D17*
X224161644Y-118011519D03*
X223970268Y-124410236D03*
D16*
X223304624Y-120718918D03*
X222889794Y-120784621D03*
%TD*%
%TO.P,S11,*%
%TO.N,*%
X133105316Y-71381823D03*
X132690487Y-71316119D03*
D17*
X130976446Y-65901320D03*
X126742246Y-76398178D03*
D18*
X127673031Y-70521433D03*
D17*
X124307282Y-67416689D03*
X122147960Y-73443092D03*
D16*
X122655575Y-69726747D03*
X122240746Y-69661043D03*
%TD*%
%TO.P,S38,*%
%TO.N,*%
X230782107Y-100297761D03*
X230367277Y-100363464D03*
D17*
X227063863Y-95743349D03*
X226280607Y-107034895D03*
D18*
X225349821Y-101158150D03*
D17*
X221189385Y-99245437D03*
X220998009Y-105644154D03*
D16*
X220332365Y-101952836D03*
X219917535Y-102018539D03*
%TD*%
%TO.P,S30,*%
%TO.N,*%
X267375654Y-88427121D03*
X266960824Y-88492824D03*
D17*
X263657410Y-83872709D03*
X262874154Y-95164255D03*
D18*
X261943368Y-89287510D03*
D17*
X257782932Y-87374797D03*
X257591556Y-93773514D03*
D16*
X256925912Y-90082196D03*
X256511082Y-90147899D03*
%TD*%
%TO.P,S50,*%
%TO.N,*%
X286331939Y-137852642D03*
X285912515Y-137874623D03*
D17*
X283110130Y-132934518D03*
X281150877Y-144082332D03*
D18*
X280839477Y-138140490D03*
D17*
X276901765Y-135803371D03*
X276042589Y-142147030D03*
D16*
X275766439Y-138406357D03*
X275347015Y-138428338D03*
%TD*%
%TO.P,S15,*%
%TO.N,*%
X151402094Y-77317144D03*
X150987265Y-77251440D03*
D17*
X149273224Y-71836641D03*
X145039024Y-82333499D03*
D18*
X145969809Y-76456754D03*
D17*
X142604060Y-73352010D03*
X140444738Y-79378413D03*
D16*
X140952353Y-75662068D03*
X140537524Y-75596364D03*
%TD*%
%TO.P,S14,*%
%TO.N,*%
X148429839Y-96083227D03*
X148015010Y-96017523D03*
D17*
X146300969Y-90602724D03*
X142066769Y-101099582D03*
D18*
X142997554Y-95222837D03*
D17*
X139631805Y-92118093D03*
X137472483Y-98144496D03*
D16*
X137980098Y-94428151D03*
X137565269Y-94362447D03*
%TD*%
%TO.P,S53,*%
%TO.N,*%
X249378402Y-158815371D03*
X248958978Y-158837352D03*
D17*
X246156593Y-153897247D03*
X244197340Y-165045061D03*
D18*
X243885940Y-159103219D03*
D17*
X239948228Y-156766100D03*
X239089052Y-163109759D03*
D16*
X238812902Y-159369086D03*
X238393478Y-159391067D03*
%TD*%
%TO.P,S8,*%
%TO.N,*%
X116842194Y-52606553D03*
X116427365Y-52540849D03*
D17*
X114713324Y-47126050D03*
X110479124Y-57622908D03*
D18*
X111409909Y-51746163D03*
D17*
X108044160Y-48641419D03*
X105884838Y-54667822D03*
D16*
X106392453Y-50951477D03*
X105977624Y-50885773D03*
%TD*%
%TO.P,S18,*%
%TO.N,*%
X166726615Y-102018542D03*
X166311786Y-101952838D03*
D17*
X164597745Y-96538039D03*
X160363545Y-107034897D03*
D18*
X161294330Y-101158152D03*
D17*
X157928581Y-98053408D03*
X155769259Y-104079811D03*
D16*
X156276874Y-100363466D03*
X155862045Y-100297762D03*
%TD*%
%TO.P,S9,*%
%TO.N,*%
X127160809Y-108913981D03*
X126745980Y-108848277D03*
D17*
X125031939Y-103433478D03*
X120797739Y-113930336D03*
D18*
X121728524Y-108053591D03*
D17*
X118362775Y-104948847D03*
X116203453Y-110975250D03*
D16*
X116711068Y-107258905D03*
X116296239Y-107193201D03*
%TD*%
%TO.P,S34,*%
%TO.N,*%
X249078881Y-94362444D03*
X248664051Y-94428147D03*
D17*
X245360637Y-89808032D03*
X244577381Y-101099578D03*
D18*
X243646595Y-95222833D03*
D17*
X239486159Y-93310120D03*
X239294783Y-99708837D03*
D16*
X238629139Y-96017519D03*
X238214309Y-96083222D03*
%TD*%
%TO.P,S36,*%
%TO.N,*%
X243134372Y-56830287D03*
X242719542Y-56895990D03*
D17*
X239416128Y-52275875D03*
X238632872Y-63567421D03*
D18*
X237702086Y-57690676D03*
D17*
X233541650Y-55777963D03*
X233350274Y-62176680D03*
D16*
X232684630Y-58485362D03*
X232269800Y-58551065D03*
%TD*%
%TO.P,S3,*%
%TO.N,*%
X94321681Y-73338825D03*
X93906852Y-73273121D03*
D17*
X92192811Y-67858322D03*
X87958611Y-78355180D03*
D18*
X88889396Y-72478435D03*
D17*
X85523647Y-69373691D03*
X83364325Y-75400094D03*
D16*
X83871940Y-71683749D03*
X83457111Y-71618045D03*
%TD*%
%TO.P,S51,*%
%TO.N,*%
X268352357Y-157820991D03*
X267932933Y-157842972D03*
D17*
X265130548Y-152902867D03*
X263171295Y-164050681D03*
D18*
X262859895Y-158108839D03*
D17*
X258922183Y-155771720D03*
X258063007Y-162115379D03*
D16*
X257786857Y-158374706D03*
X257367433Y-158396687D03*
%TD*%
%TO.P,S28,*%
%TO.N,*%
X280666527Y-50885776D03*
X280251697Y-50951479D03*
D17*
X276948283Y-46331364D03*
X276165027Y-57622910D03*
D18*
X275234241Y-51746165D03*
D17*
X271073805Y-49833452D03*
X270882429Y-56232169D03*
D16*
X270216785Y-52540851D03*
X269801955Y-52606554D03*
%TD*%
D21*
%TO.N,CPN*%
X86000000Y-142200000D03*
X87567038Y-102443739D03*
X107573294Y-40234192D03*
X93924420Y-71254256D03*
X299648504Y-63825844D03*
X293400000Y-150600000D03*
X86000000Y-148600000D03*
X93251437Y-65275369D03*
X302514034Y-55069775D03*
X90525801Y-90155297D03*
X293400000Y-144800000D03*
X96865387Y-52685714D03*
X90341753Y-83646372D03*
X101874155Y-42976412D03*
%TO.N,CRN*%
X282286661Y-67993142D03*
X279646908Y-48769413D03*
X113472672Y-69288069D03*
X112830972Y-63111644D03*
X126247351Y-39951986D03*
X283072509Y-80625735D03*
X103062465Y-125385129D03*
X107084003Y-100675088D03*
X109858718Y-81877721D03*
X110469125Y-88251684D03*
X280297791Y-61828373D03*
X112287237Y-148989206D03*
X120974572Y-42559240D03*
X116216101Y-50688244D03*
X285425167Y-86530396D03*
X286044763Y-99391814D03*
X104751881Y-129995756D03*
X282487237Y-147189205D03*
%TO.N,CMI*%
X266023534Y-86768409D03*
X264034666Y-80603639D03*
X135451480Y-50697431D03*
X132097642Y-62923298D03*
X263217530Y-67773505D03*
X139905063Y-49607395D03*
X267006922Y-99369716D03*
X126153133Y-100455453D03*
X122047549Y-126974621D03*
X129538258Y-88032051D03*
X124125296Y-131011074D03*
X263087237Y-148789208D03*
X269323216Y-126596080D03*
X261062411Y-61837560D03*
X260079023Y-49236254D03*
X130287237Y-148789208D03*
X142527650Y-44555462D03*
X129125386Y-81689379D03*
X132281690Y-69432223D03*
X269543023Y-130790323D03*
%TO.N,CID*%
X241948499Y-54942747D03*
X141032636Y-128564116D03*
X149287237Y-149789206D03*
X243287237Y-149989207D03*
X245509065Y-86372709D03*
X147588416Y-87853518D03*
X236435240Y-49538680D03*
X244952043Y-73906366D03*
X147803744Y-94164907D03*
X251200491Y-128547222D03*
X251347030Y-131343386D03*
X233689344Y-47543670D03*
X248481319Y-105138786D03*
X150807289Y-75201292D03*
X153748257Y-56632750D03*
X143477775Y-132425845D03*
X150394418Y-68858618D03*
X144418619Y-106588315D03*
X247924297Y-92672441D03*
X242568097Y-67804168D03*
%TO.N,CIN*%
X231249503Y-129856988D03*
X230413371Y-111240357D03*
X165885189Y-93788839D03*
X162715398Y-112523630D03*
X226457729Y-79872972D03*
X209934922Y-147236892D03*
X224240038Y-73541950D03*
X219718766Y-55223704D03*
X168857442Y-75022762D03*
X169104064Y-81136614D03*
X164760548Y-129504644D03*
X229793770Y-98378938D03*
X216744048Y-53062441D03*
X223485474Y-61106893D03*
X223887238Y-149589206D03*
X167337435Y-133051426D03*
X231396042Y-132653152D03*
X227243576Y-92505566D03*
X172273853Y-62401820D03*
X166131813Y-99902691D03*
%TO.N,LBO*%
X129822705Y-108150937D03*
X133512414Y-131503029D03*
%TO.N,LHO*%
X114738177Y-130519115D03*
X113907410Y-79508601D03*
%TO.N,RBO*%
X221237359Y-149143599D03*
X214527593Y-116650229D03*
%TO.N,RHO*%
X231745838Y-92804942D03*
X251028772Y-144377904D03*
%TD*%
D22*
%TO.N,CPN*%
X299648504Y-63825844D02*
X299022767Y-59875091D01*
X293400000Y-150600000D02*
X293400000Y-144800000D01*
X90341753Y-83646372D02*
X92093819Y-72584260D01*
X299022767Y-59875091D02*
X302514034Y-55069775D01*
X101874155Y-42976412D02*
X105992993Y-39983897D01*
X94158758Y-59546773D02*
X95034790Y-54015722D01*
X87567038Y-102443739D02*
X89381678Y-90986550D01*
X95034790Y-54015722D02*
X96865387Y-52685714D01*
X92093819Y-72584260D02*
X93924420Y-71254256D01*
X86000000Y-142200000D02*
X86000000Y-148600000D01*
X89381678Y-90986550D02*
X90525801Y-90155297D01*
X93251437Y-65275369D02*
X94158758Y-59546773D01*
X105992993Y-39983897D02*
X107573294Y-40234192D01*
%TO.N,GND*%
X207460690Y-49552929D02*
X192615148Y-49552922D01*
X192615148Y-49552922D02*
X185702074Y-56465994D01*
X207460691Y-49552925D02*
X212481287Y-48017966D01*
%TO.N,CRN*%
X283072509Y-80625735D02*
X281289156Y-69366092D01*
X109858718Y-81877721D02*
X111642069Y-70618074D01*
X107084003Y-100675088D02*
X108867353Y-89415445D01*
X132337179Y-151191208D02*
X148989352Y-151191207D01*
X113863441Y-56592901D02*
X114614329Y-51851999D01*
X151487237Y-152789208D02*
X177287236Y-152789205D01*
X242736179Y-152790207D02*
X243736179Y-151790205D01*
X177287236Y-152789205D02*
X230687236Y-152789205D01*
X102927044Y-127969070D02*
X104751881Y-129995756D01*
X111642069Y-70618074D02*
X113472672Y-69288069D01*
X230688237Y-152790206D02*
X242736179Y-152790207D01*
X124864588Y-39732976D02*
X126247351Y-39951986D01*
X278483151Y-50371188D02*
X279646908Y-48769413D01*
X280297791Y-61828373D02*
X278483151Y-50371188D01*
X114614329Y-51851999D02*
X116216101Y-50688244D01*
X284480420Y-89514933D02*
X284261411Y-88132168D01*
X261219024Y-151790208D02*
X263820022Y-149189207D01*
X150588353Y-152790206D02*
X151486237Y-152790207D01*
X125236952Y-148989206D02*
X127438951Y-151191207D01*
X263820022Y-149189207D02*
X267487237Y-149189208D01*
X148989352Y-151191207D02*
X150588353Y-152790206D01*
X112830972Y-63111644D02*
X113863441Y-56592901D01*
X151486237Y-152790207D02*
X151487237Y-152789208D01*
X112287237Y-148989206D02*
X125236952Y-148989206D01*
X267487237Y-149189208D02*
X280487237Y-149189207D01*
X120974572Y-42559240D02*
X124864588Y-39732976D01*
X103062465Y-125385129D02*
X102927044Y-127969070D01*
X127438951Y-151191207D02*
X132337179Y-151191208D01*
X230687236Y-152789205D02*
X230688237Y-152790206D01*
X281289156Y-69366092D02*
X282286661Y-67993142D01*
X286044763Y-99391814D02*
X284480420Y-89514933D01*
X284261411Y-88132168D02*
X285425167Y-86530396D01*
X108867353Y-89415445D02*
X110469125Y-88251684D01*
X280487237Y-149189207D02*
X282487237Y-147189205D01*
X243736179Y-151790205D02*
X261219024Y-151790208D01*
%TO.N,CMI*%
X150837295Y-152189208D02*
X242487237Y-152189206D01*
X259247772Y-50380376D02*
X260079023Y-49236254D01*
X264034666Y-80603639D02*
X262220025Y-69146455D01*
X132097642Y-62923298D02*
X133849708Y-51861187D01*
X243487237Y-151189206D02*
X260687237Y-151189206D01*
X261062411Y-61837560D02*
X259247772Y-50380376D01*
X242487237Y-152189206D02*
X243487237Y-151189206D01*
X133849708Y-51861187D02*
X135451480Y-50697431D01*
X149238295Y-150590207D02*
X150837295Y-152189208D01*
X260687237Y-151189206D02*
X263087237Y-148789208D01*
X262220025Y-69146455D02*
X263217530Y-67773505D01*
X129125386Y-81689379D02*
X130908742Y-70429728D01*
X269543023Y-130790323D02*
X269323216Y-126596080D01*
X267006922Y-99369716D02*
X265192279Y-87912535D01*
X139905063Y-49607395D02*
X140468225Y-46051714D01*
X126153133Y-100455453D02*
X127936486Y-89195805D01*
X122047549Y-126974621D02*
X121961927Y-128608409D01*
X130287237Y-148789208D02*
X132088237Y-150590207D01*
X140468225Y-46051714D02*
X142527650Y-44555462D01*
X121961927Y-128608409D02*
X124125296Y-131011074D01*
X130908742Y-70429728D02*
X132281690Y-69432223D01*
X127936486Y-89195805D02*
X129538258Y-88032051D01*
X265192279Y-87912535D02*
X266023534Y-86768409D01*
X132088237Y-150590207D02*
X149238295Y-150590207D01*
%TO.N,CID*%
X242568097Y-67804168D02*
X241504343Y-61087886D01*
X240784745Y-56544520D02*
X241948499Y-54942747D01*
X147588416Y-87853518D02*
X149434340Y-76198799D01*
X151087237Y-151589207D02*
X241687236Y-151589206D01*
X149434340Y-76198799D02*
X150807289Y-75201292D01*
X149287237Y-149789206D02*
X151087237Y-151589207D01*
X152146488Y-57796507D02*
X153748257Y-56632750D01*
X150394418Y-68858618D02*
X152146488Y-57796507D01*
X236435240Y-49538680D02*
X233689344Y-47543670D01*
X248481319Y-105138786D02*
X246760542Y-94274214D01*
X251200491Y-128547222D02*
X251347030Y-131343386D01*
X241687236Y-151589206D02*
X243287237Y-149989207D01*
X241504343Y-61087886D02*
X240784745Y-56544520D01*
X144418619Y-106588315D02*
X146201976Y-95328664D01*
X140975870Y-129647198D02*
X143477775Y-132425845D01*
X244601746Y-80644115D02*
X243788288Y-75508135D01*
X246760542Y-94274214D02*
X247924297Y-92672441D01*
X243788288Y-75508135D02*
X244952043Y-73906366D01*
X141032636Y-128564116D02*
X140975870Y-129647198D01*
X146201976Y-95328664D02*
X147803744Y-94164907D01*
X245509065Y-86372709D02*
X244601746Y-80644115D01*
%TO.N,CIN*%
X212768849Y-150070821D02*
X223405624Y-150070820D01*
X231396042Y-132653152D02*
X231249503Y-129856988D01*
X162715398Y-112523630D02*
X164530037Y-101066447D01*
X228630016Y-99980712D02*
X229793770Y-98378938D01*
X222487971Y-62479839D02*
X223485474Y-61106893D01*
X219718766Y-55223704D02*
X216744048Y-53062441D01*
X165885189Y-93788839D02*
X166948942Y-87072555D01*
X170672083Y-63565579D02*
X172273853Y-62401820D01*
X168857442Y-75022762D02*
X170672083Y-63565579D01*
X166948942Y-87072555D02*
X167731115Y-82134117D01*
X164530037Y-101066447D02*
X166131813Y-99902691D01*
X167337435Y-133051426D02*
X164760548Y-129504644D01*
X223405624Y-150070820D02*
X223887238Y-149589206D01*
X230413371Y-111240357D02*
X228630016Y-99980712D01*
X225460222Y-81245919D02*
X226457729Y-79872972D01*
X224240038Y-73541950D02*
X222487971Y-62479839D01*
X227243576Y-92505566D02*
X225460222Y-81245919D01*
X167731115Y-82134117D02*
X169104064Y-81136614D01*
X209934922Y-147236892D02*
X212768849Y-150070821D01*
%TO.N,LBO*%
X129558063Y-122884267D02*
X127859463Y-120546345D01*
X133721754Y-127508514D02*
X129558063Y-122884267D01*
X133512414Y-131503029D02*
X133721754Y-127508514D01*
X127859463Y-120546345D02*
X128070636Y-119213044D01*
X128070636Y-119213044D02*
X129822705Y-108150937D01*
%TO.N,LHO*%
X108846449Y-119133177D02*
X108866541Y-119006316D01*
X114738177Y-130519115D02*
X114947523Y-126524598D01*
X113220935Y-80007349D02*
X113907410Y-79508601D01*
X112407478Y-85143330D02*
X113220935Y-80007349D01*
X114947523Y-126524598D02*
X111162350Y-122320734D01*
X113903734Y-87202751D02*
X112407478Y-85143330D01*
X111162350Y-122320734D02*
X108846449Y-119133177D01*
X108866541Y-119006316D02*
X113903734Y-87202751D01*
%TO.N,RBO*%
X214194615Y-148511322D02*
X212635004Y-118752160D01*
X215245582Y-149457614D02*
X214194615Y-148511322D01*
X221237359Y-149143599D02*
X215245582Y-149457614D01*
X212635004Y-118752160D02*
X214527593Y-116650229D01*
%TO.N,RHO*%
X242057738Y-125190525D02*
X241940481Y-125209098D01*
X237989727Y-125834835D02*
X237760901Y-125668585D01*
X250390271Y-132194625D02*
X244925251Y-127273898D01*
X244925251Y-127273898D02*
X242057738Y-125190525D01*
X241940481Y-125209098D02*
X237989727Y-125834835D01*
X251028772Y-144377904D02*
X250390271Y-132194625D01*
X236345015Y-121842979D02*
X231745838Y-92804942D01*
X237760901Y-125668585D02*
X236845603Y-125003582D01*
X236845603Y-125003582D02*
X236345015Y-121842979D01*
%TO.N,RAW*%
X177682792Y-53925995D02*
X185702077Y-53925997D01*
X174795018Y-51038216D02*
X177682792Y-53925995D01*
%TO.N,RST*%
X193529429Y-51178645D02*
X185702075Y-59005997D01*
X207957720Y-51178639D02*
X193529429Y-51178645D01*
X207957720Y-51178639D02*
X212978316Y-49643691D01*
%TO.N,SDA*%
X195423069Y-69605000D02*
X200942077Y-64086000D01*
X189512073Y-120858148D02*
X195423071Y-114947153D01*
X195423071Y-114947153D02*
X195423069Y-69605000D01*
%TO.N,SCL*%
X192052072Y-120858152D02*
X196210635Y-116699585D01*
X196210635Y-116699585D02*
X196210638Y-71357432D01*
X196210638Y-71357432D02*
X200942078Y-66625997D01*
%TO.N,BAT_P*%
X176877697Y-54998305D02*
X181219498Y-54998314D01*
X183819506Y-57598306D02*
X183819499Y-81894025D01*
X191798781Y-89873309D02*
X192322078Y-89873308D01*
X173360552Y-50599662D02*
X173360550Y-51481156D01*
X183819499Y-81894025D02*
X191798781Y-89873309D01*
X173360550Y-51481156D02*
X176877697Y-54998305D01*
X181219498Y-54998314D02*
X183819506Y-57598306D01*
%TD*%
M02*
