%TF.GenerationSoftware,KiCad,Pcbnew,9.0.2-9.0.2-0~ubuntu24.04.1*%
%TF.CreationDate,2025-06-02T17:11:59+02:00*%
%TF.ProjectId,gandalf-RO,67616e64-616c-4662-9d52-4f2e6b696361,v1.0.0*%
%TF.SameCoordinates,Original*%
%TF.FileFunction,Plated,1,2,PTH,Drill*%
%TF.FilePolarity,Positive*%
%FSLAX46Y46*%
G04 Gerber Fmt 4.6, Leading zero omitted, Abs format (unit mm)*
G04 Created by KiCad (PCBNEW 9.0.2-9.0.2-0~ubuntu24.04.1) date 2025-06-02 17:11:59*
%MOMM*%
%LPD*%
G01*
G04 APERTURE LIST*
%TA.AperFunction,ViaDrill*%
%ADD10C,0.300000*%
%TD*%
%TA.AperFunction,ComponentDrill*%
%ADD11C,0.750000*%
%TD*%
%TA.AperFunction,ComponentDrill*%
%ADD12C,1.000000*%
%TD*%
%TA.AperFunction,ComponentDrill*%
%ADD13C,1.900000*%
%TD*%
%TA.AperFunction,ComponentDrill*%
%ADD14C,2.200000*%
%TD*%
%TA.AperFunction,ComponentDrill*%
%ADD15C,3.000000*%
%TD*%
%TA.AperFunction,ComponentDrill*%
%ADD16C,5.000000*%
%TD*%
G04 APERTURE END LIST*
D10*
X86000000Y-142200000D03*
X86000000Y-148600000D03*
X87567038Y-102443739D03*
X90341753Y-83646372D03*
X90525801Y-90155297D03*
X93251437Y-65275369D03*
X93924420Y-71254256D03*
X96865387Y-52685714D03*
X101874155Y-42976412D03*
X103062465Y-125385129D03*
X104751881Y-129995756D03*
X107084003Y-100675088D03*
X107573294Y-40234192D03*
X109858718Y-81877721D03*
X110469125Y-88251684D03*
X112287237Y-148989206D03*
X112830972Y-63111644D03*
X113472672Y-69288069D03*
X113907410Y-79508601D03*
X114738177Y-130519115D03*
X116216101Y-50688244D03*
X120974572Y-42559240D03*
X122047549Y-126974621D03*
X124125296Y-131011074D03*
X126153133Y-100455453D03*
X126247351Y-39951986D03*
X129125386Y-81689379D03*
X129538258Y-88032051D03*
X129822705Y-108150937D03*
X130287237Y-148789208D03*
X132097642Y-62923298D03*
X132281690Y-69432223D03*
X133512414Y-131503029D03*
X135451480Y-50697431D03*
X139905063Y-49607395D03*
X141032636Y-128564116D03*
X142527650Y-44555462D03*
X143477775Y-132425845D03*
X144418619Y-106588315D03*
X147588416Y-87853518D03*
X147803744Y-94164907D03*
X149287237Y-149789206D03*
X150394418Y-68858618D03*
X150807289Y-75201292D03*
X153748257Y-56632750D03*
X162715398Y-112523630D03*
X164760548Y-129504644D03*
X165885189Y-93788839D03*
X166131813Y-99902691D03*
X167337435Y-133051426D03*
X168857442Y-75022762D03*
X169104064Y-81136614D03*
X172273853Y-62401820D03*
X209934922Y-147236892D03*
X214527593Y-116650229D03*
X216744048Y-53062441D03*
X219718766Y-55223704D03*
X221237359Y-149143599D03*
X223485474Y-61106893D03*
X223887238Y-149589206D03*
X224240038Y-73541950D03*
X226457729Y-79872972D03*
X227243576Y-92505566D03*
X229793770Y-98378938D03*
X230413371Y-111240357D03*
X231249503Y-129856988D03*
X231396042Y-132653152D03*
X231745838Y-92804942D03*
X233689344Y-47543670D03*
X236435240Y-49538680D03*
X241948499Y-54942747D03*
X242568097Y-67804168D03*
X243287237Y-149989207D03*
X244952043Y-73906366D03*
X245509065Y-86372709D03*
X247924297Y-92672441D03*
X248481319Y-105138786D03*
X251028772Y-144377904D03*
X251200491Y-128547222D03*
X251347030Y-131343386D03*
X260079023Y-49236254D03*
X261062411Y-61837560D03*
X263087237Y-148789208D03*
X263217530Y-67773505D03*
X264034666Y-80603639D03*
X266023534Y-86768409D03*
X267006922Y-99369716D03*
X269323216Y-126596080D03*
X269543023Y-130790323D03*
X279646908Y-48769413D03*
X280297791Y-61828373D03*
X282286661Y-67993142D03*
X282487237Y-147189205D03*
X283072509Y-80625735D03*
X285425167Y-86530396D03*
X286044763Y-99391814D03*
X293400000Y-144800000D03*
X293400000Y-150600000D03*
X299648504Y-63825844D03*
X302514034Y-55069775D03*
D11*
%TO.C,JST1*%
X192322071Y-89873309D03*
X194322071Y-89873309D03*
D12*
%TO.C,MCU1*%
X185702077Y-53925993D03*
X185702077Y-56465995D03*
X185702077Y-59005995D03*
X185702077Y-61545995D03*
X185702077Y-64085995D03*
X185702077Y-66625995D03*
X185702077Y-69165995D03*
X185702077Y-74245995D03*
X185702077Y-76785995D03*
X185702077Y-79325997D03*
X185702077Y-81865995D03*
X185702078Y-71705995D03*
%TO.C,DISP1*%
X189512074Y-120858148D03*
X192052074Y-120858150D03*
X194592074Y-120858150D03*
X197132074Y-120858148D03*
%TO.C,MCU1*%
X200942076Y-61545995D03*
X200942077Y-53925993D03*
X200942077Y-56465995D03*
X200942077Y-59005995D03*
X200942077Y-64085995D03*
X200942077Y-66625995D03*
X200942077Y-69165995D03*
X200942077Y-71705995D03*
X200942077Y-74245995D03*
X200942077Y-76785995D03*
X200942077Y-79325997D03*
X200942077Y-81865994D03*
D13*
%TO.C,S1*%
X77512603Y-109150193D03*
X77927432Y-109215897D03*
%TO.C,S2*%
X80484857Y-90384124D03*
X80899686Y-90449828D03*
%TO.C,S3*%
X83457111Y-71618045D03*
X83871940Y-71683749D03*
%TO.C,S4*%
X86429372Y-52851961D03*
X86844201Y-52917665D03*
%TO.C,S1*%
X87962344Y-110805269D03*
X88377173Y-110870973D03*
%TO.C,S2*%
X90934598Y-92039200D03*
X91349427Y-92104904D03*
%TO.C,S3*%
X93906852Y-73273121D03*
X94321681Y-73338825D03*
%TO.C,S4*%
X96879113Y-54507037D03*
%TO.C,S5*%
X97060858Y-107184011D03*
%TO.C,S4*%
X97293942Y-54572741D03*
%TO.C,S5*%
X97475687Y-107249715D03*
%TO.C,S41*%
X99317827Y-156826601D03*
X99737251Y-156848582D03*
%TO.C,S6*%
X100033114Y-88417924D03*
%TO.C,S42*%
X100312206Y-137852644D03*
%TO.C,S6*%
X100447943Y-88483628D03*
%TO.C,S42*%
X100731630Y-137874625D03*
%TO.C,S7*%
X103005366Y-69651851D03*
X103420195Y-69717555D03*
%TO.C,S8*%
X105977624Y-50885773D03*
X106392453Y-50951477D03*
%TO.C,S5*%
X107510599Y-108839087D03*
X107925428Y-108904791D03*
%TO.C,S41*%
X109883327Y-157380316D03*
X110302751Y-157402297D03*
%TO.C,S6*%
X110482855Y-90073000D03*
%TO.C,S42*%
X110877706Y-138406359D03*
%TO.C,S6*%
X110897684Y-90138704D03*
%TO.C,S42*%
X111297130Y-138428340D03*
%TO.C,S7*%
X113455107Y-71306927D03*
X113869936Y-71372631D03*
%TO.C,S9*%
X116296239Y-107193201D03*
%TO.C,S8*%
X116427365Y-52540849D03*
%TO.C,S9*%
X116711068Y-107258905D03*
%TO.C,S8*%
X116842194Y-52606553D03*
%TO.C,S43*%
X118291783Y-157820985D03*
X118711207Y-157842966D03*
%TO.C,S10*%
X119268496Y-88427127D03*
%TO.C,S44*%
X119286178Y-138847028D03*
%TO.C,S10*%
X119683325Y-88492831D03*
%TO.C,S44*%
X119705602Y-138869009D03*
%TO.C,S11*%
X122240746Y-69661043D03*
X122655575Y-69726747D03*
%TO.C,S12*%
X125212999Y-50894970D03*
X125627828Y-50960674D03*
%TO.C,S9*%
X126745980Y-108848277D03*
X127160809Y-108913981D03*
%TO.C,S43*%
X128857283Y-158374700D03*
X129276707Y-158396681D03*
%TO.C,S10*%
X129718237Y-90082203D03*
%TO.C,S44*%
X129851678Y-139400743D03*
%TO.C,S10*%
X130133066Y-90147907D03*
%TO.C,S44*%
X130271102Y-139422724D03*
%TO.C,S11*%
X132690487Y-71316119D03*
X133105316Y-71381823D03*
%TO.C,S13*%
X134593011Y-113128519D03*
X135007840Y-113194223D03*
%TO.C,S12*%
X135662740Y-52550046D03*
X136077569Y-52615750D03*
%TO.C,S45*%
X137265753Y-158815373D03*
%TO.C,S14*%
X137565269Y-94362447D03*
%TO.C,S45*%
X137685177Y-158837354D03*
%TO.C,S14*%
X137980098Y-94428151D03*
%TO.C,S46*%
X138260135Y-139841411D03*
X138679559Y-139863392D03*
%TO.C,S15*%
X140537524Y-75596364D03*
X140952353Y-75662068D03*
%TO.C,S16*%
X143509777Y-56830288D03*
X143924606Y-56895992D03*
%TO.C,S13*%
X145042752Y-114783595D03*
X145457581Y-114849299D03*
%TO.C,S45*%
X147831253Y-159369088D03*
%TO.C,S14*%
X148015010Y-96017523D03*
%TO.C,S45*%
X148250677Y-159391069D03*
%TO.C,S14*%
X148429839Y-96083227D03*
%TO.C,S46*%
X148825635Y-140395126D03*
X149245059Y-140417107D03*
%TO.C,S15*%
X150987265Y-77251440D03*
X151402094Y-77317144D03*
%TO.C,S17*%
X152889785Y-119063841D03*
X153304614Y-119129545D03*
%TO.C,S16*%
X153959518Y-58485364D03*
X154374347Y-58551068D03*
%TO.C,S18*%
X155862045Y-100297762D03*
%TO.C,S47*%
X156239711Y-159809750D03*
%TO.C,S18*%
X156276874Y-100363466D03*
%TO.C,S47*%
X156659135Y-159831731D03*
%TO.C,S48*%
X157234093Y-140835797D03*
X157653517Y-140857778D03*
%TO.C,S19*%
X158834299Y-81531682D03*
X159249128Y-81597386D03*
%TO.C,S20*%
X161806554Y-62765609D03*
X162221383Y-62831313D03*
%TO.C,S17*%
X163339526Y-120718917D03*
X163754355Y-120784621D03*
%TO.C,S18*%
X166311786Y-101952838D03*
X166726615Y-102018542D03*
%TO.C,S47*%
X166805211Y-160363465D03*
X167224635Y-160385446D03*
%TO.C,S48*%
X167799593Y-141389512D03*
X168219017Y-141411493D03*
%TO.C,S19*%
X169284040Y-83186758D03*
X169698869Y-83252462D03*
%TO.C,S20*%
X172256295Y-64420685D03*
X172671124Y-64486389D03*
%TO.C,S40*%
X213973028Y-64486382D03*
X214387858Y-64420679D03*
%TO.C,S39*%
X216945281Y-83252467D03*
X217360111Y-83186764D03*
%TO.C,S56*%
X218425137Y-141411484D03*
X218844561Y-141389503D03*
%TO.C,S55*%
X219419518Y-160385447D03*
X219838942Y-160363466D03*
%TO.C,S38*%
X219917535Y-102018539D03*
X220332365Y-101952836D03*
%TO.C,S37*%
X222889794Y-120784621D03*
X223304624Y-120718918D03*
%TO.C,S40*%
X224422770Y-62831307D03*
X224837600Y-62765604D03*
%TO.C,S39*%
X227395023Y-81597392D03*
X227809853Y-81531689D03*
%TO.C,S56*%
X228990637Y-140857769D03*
X229410061Y-140835788D03*
%TO.C,S55*%
X229985018Y-159831732D03*
%TO.C,S38*%
X230367277Y-100363464D03*
%TO.C,S55*%
X230404442Y-159809751D03*
%TO.C,S38*%
X230782107Y-100297761D03*
%TO.C,S36*%
X232269800Y-58551065D03*
X232684630Y-58485362D03*
%TO.C,S37*%
X233339536Y-119129546D03*
X233754366Y-119063843D03*
%TO.C,S35*%
X235242054Y-77317143D03*
X235656884Y-77251440D03*
%TO.C,S54*%
X237399093Y-140417109D03*
X237818517Y-140395128D03*
%TO.C,S34*%
X238214309Y-96083222D03*
%TO.C,S53*%
X238393478Y-159391067D03*
%TO.C,S34*%
X238629139Y-96017519D03*
%TO.C,S53*%
X238812902Y-159369086D03*
%TO.C,S33*%
X241186564Y-114849298D03*
X241601394Y-114783595D03*
%TO.C,S36*%
X242719542Y-56895990D03*
X243134372Y-56830287D03*
%TO.C,S35*%
X245691796Y-75662068D03*
X246106626Y-75596365D03*
%TO.C,S54*%
X247964593Y-139863394D03*
X248384017Y-139841413D03*
%TO.C,S34*%
X248664051Y-94428147D03*
%TO.C,S53*%
X248958978Y-158837352D03*
%TO.C,S34*%
X249078881Y-94362444D03*
%TO.C,S53*%
X249378402Y-158815371D03*
%TO.C,S32*%
X250566576Y-52615741D03*
X250981406Y-52550038D03*
%TO.C,S33*%
X251636306Y-113194223D03*
X252051136Y-113128520D03*
%TO.C,S31*%
X253538829Y-71381823D03*
X253953659Y-71316120D03*
%TO.C,S52*%
X256373058Y-139422721D03*
%TO.C,S30*%
X256511082Y-90147899D03*
%TO.C,S52*%
X256792482Y-139400740D03*
%TO.C,S30*%
X256925912Y-90082196D03*
%TO.C,S51*%
X257367433Y-158396687D03*
X257786857Y-158374706D03*
%TO.C,S29*%
X259483340Y-108913975D03*
X259898170Y-108848272D03*
%TO.C,S32*%
X261016318Y-50960666D03*
X261431148Y-50894963D03*
%TO.C,S31*%
X263988571Y-69726748D03*
X264403401Y-69661045D03*
%TO.C,S52*%
X266938558Y-138869006D03*
%TO.C,S30*%
X266960824Y-88492824D03*
%TO.C,S52*%
X267357982Y-138847025D03*
%TO.C,S30*%
X267375654Y-88427121D03*
%TO.C,S51*%
X267932933Y-157842972D03*
X268352357Y-157820991D03*
%TO.C,S28*%
X269801955Y-52606554D03*
%TO.C,S29*%
X269933082Y-107258900D03*
%TO.C,S28*%
X270216785Y-52540851D03*
%TO.C,S29*%
X270347912Y-107193197D03*
%TO.C,S27*%
X272774211Y-71372630D03*
X273189041Y-71306927D03*
%TO.C,S50*%
X275347015Y-138428338D03*
%TO.C,S26*%
X275746465Y-90138709D03*
%TO.C,S50*%
X275766439Y-138406357D03*
%TO.C,S26*%
X276161295Y-90073006D03*
%TO.C,S49*%
X276341404Y-157402303D03*
X276760828Y-157380322D03*
%TO.C,S25*%
X278718722Y-108904791D03*
X279133552Y-108839088D03*
%TO.C,S28*%
X280251697Y-50951479D03*
X280666527Y-50885776D03*
%TO.C,S27*%
X283223953Y-69717555D03*
X283638783Y-69651852D03*
%TO.C,S50*%
X285912515Y-137874623D03*
%TO.C,S26*%
X286196207Y-88483634D03*
%TO.C,S50*%
X286331939Y-137852642D03*
%TO.C,S26*%
X286611037Y-88417931D03*
%TO.C,S49*%
X286906904Y-156848588D03*
X287326328Y-156826607D03*
%TO.C,S25*%
X289168464Y-107249716D03*
%TO.C,S24*%
X289350207Y-54572739D03*
%TO.C,S25*%
X289583294Y-107184013D03*
%TO.C,S24*%
X289765037Y-54507036D03*
%TO.C,S23*%
X292322459Y-73338822D03*
X292737289Y-73273119D03*
%TO.C,S22*%
X295294721Y-92104902D03*
X295709551Y-92039199D03*
%TO.C,S21*%
X298266974Y-110870977D03*
X298681804Y-110805274D03*
%TO.C,S24*%
X299799949Y-52917664D03*
X300214779Y-52851961D03*
%TO.C,S23*%
X302772201Y-71683747D03*
X303187031Y-71618044D03*
%TO.C,S22*%
X305744463Y-90449827D03*
X306159293Y-90384124D03*
%TO.C,S21*%
X308716716Y-109215902D03*
X309131546Y-109150199D03*
D14*
%TO.C,H3*%
X68623409Y-107742294D03*
%TO.C,H1*%
X77540174Y-51444051D03*
%TO.C,H5*%
X176511493Y-132929800D03*
%TO.C,H6*%
X210132652Y-132929799D03*
%TO.C,H2*%
X309103977Y-51444049D03*
%TO.C,H4*%
X318020734Y-107742287D03*
D15*
%TO.C,S1*%
X77419817Y-112932242D03*
X79579139Y-106905839D03*
%TO.C,S2*%
X80392071Y-94166173D03*
%TO.C,S1*%
X82014103Y-115887328D03*
%TO.C,S2*%
X82551393Y-88139770D03*
%TO.C,S3*%
X83364325Y-75400094D03*
%TO.C,S2*%
X84986357Y-97121259D03*
%TO.C,S3*%
X85523647Y-69373691D03*
%TO.C,S1*%
X86248303Y-105390470D03*
%TO.C,S4*%
X86336586Y-56634010D03*
%TO.C,S3*%
X87958611Y-78355180D03*
%TO.C,S4*%
X88495908Y-50607607D03*
%TO.C,S2*%
X89220557Y-86624401D03*
%TO.C,S4*%
X90930872Y-59589096D03*
%TO.C,S3*%
X92192811Y-67858322D03*
%TO.C,S4*%
X95165072Y-49092238D03*
%TO.C,S5*%
X96968072Y-110966060D03*
X99127394Y-104939657D03*
%TO.C,S41*%
X99620881Y-160597631D03*
%TO.C,S6*%
X99940328Y-92199973D03*
%TO.C,S42*%
X100615260Y-141623674D03*
%TO.C,S41*%
X101138443Y-154378529D03*
%TO.C,S5*%
X101562358Y-113921146D03*
%TO.C,S6*%
X102099650Y-86173570D03*
%TO.C,S42*%
X102132822Y-135404572D03*
%TO.C,S7*%
X102912580Y-73433900D03*
%TO.C,S41*%
X104498890Y-163056295D03*
%TO.C,S6*%
X104534614Y-95155059D03*
%TO.C,S7*%
X105071902Y-67407497D03*
%TO.C,S42*%
X105493269Y-144082338D03*
%TO.C,S5*%
X105796558Y-103424288D03*
%TO.C,S8*%
X105884838Y-54667822D03*
%TO.C,S7*%
X107506866Y-76388986D03*
%TO.C,S41*%
X107612675Y-152174344D03*
%TO.C,S8*%
X108044160Y-48641419D03*
%TO.C,S42*%
X108607054Y-133200387D03*
%TO.C,S6*%
X108768814Y-84658201D03*
%TO.C,S8*%
X110479124Y-57622908D03*
%TO.C,S7*%
X111741066Y-65892128D03*
%TO.C,S8*%
X114713324Y-47126050D03*
%TO.C,S9*%
X116203453Y-110975250D03*
X118362775Y-104948847D03*
%TO.C,S43*%
X118594837Y-161592015D03*
%TO.C,S10*%
X119175710Y-92209176D03*
%TO.C,S44*%
X119589232Y-142618058D03*
%TO.C,S43*%
X120112399Y-155372913D03*
%TO.C,S9*%
X120797739Y-113930336D03*
%TO.C,S44*%
X121106794Y-136398956D03*
%TO.C,S10*%
X121335032Y-86182773D03*
%TO.C,S11*%
X122147960Y-73443092D03*
%TO.C,S43*%
X123472846Y-164050679D03*
%TO.C,S10*%
X123769996Y-95164262D03*
%TO.C,S11*%
X124307282Y-67416689D03*
%TO.C,S44*%
X124467241Y-145076722D03*
%TO.C,S9*%
X125031939Y-103433478D03*
%TO.C,S12*%
X125120213Y-54677019D03*
%TO.C,S43*%
X126586631Y-153168728D03*
%TO.C,S11*%
X126742246Y-76398178D03*
%TO.C,S12*%
X127279535Y-48650616D03*
%TO.C,S44*%
X127581026Y-134194771D03*
%TO.C,S10*%
X128004196Y-84667404D03*
%TO.C,S12*%
X129714499Y-57632105D03*
%TO.C,S11*%
X130976446Y-65901320D03*
%TO.C,S12*%
X133948699Y-47135247D03*
%TO.C,S13*%
X134500225Y-116910568D03*
X136659547Y-110884165D03*
%TO.C,S14*%
X137472483Y-98144496D03*
%TO.C,S45*%
X137568807Y-162586403D03*
%TO.C,S46*%
X138563189Y-143612441D03*
%TO.C,S45*%
X139086369Y-156367301D03*
%TO.C,S13*%
X139094511Y-119865654D03*
%TO.C,S14*%
X139631805Y-92118093D03*
%TO.C,S46*%
X140080751Y-137393339D03*
%TO.C,S15*%
X140444738Y-79378413D03*
%TO.C,S14*%
X142066769Y-101099582D03*
%TO.C,S45*%
X142446816Y-165045067D03*
%TO.C,S15*%
X142604060Y-73352010D03*
%TO.C,S13*%
X143328711Y-109368796D03*
%TO.C,S16*%
X143416991Y-60612337D03*
%TO.C,S46*%
X143441198Y-146071105D03*
%TO.C,S15*%
X145039024Y-82333499D03*
%TO.C,S45*%
X145560601Y-154163116D03*
%TO.C,S16*%
X145576313Y-54585934D03*
%TO.C,S14*%
X146300969Y-90602724D03*
%TO.C,S46*%
X146554983Y-135189154D03*
%TO.C,S16*%
X148011277Y-63567423D03*
%TO.C,S15*%
X149273224Y-71836641D03*
%TO.C,S16*%
X152245477Y-53070565D03*
%TO.C,S17*%
X152796999Y-122845890D03*
X154956321Y-116819487D03*
%TO.C,S18*%
X155769259Y-104079811D03*
%TO.C,S47*%
X156542765Y-163580780D03*
%TO.C,S17*%
X157391285Y-125800976D03*
%TO.C,S48*%
X157537147Y-144606827D03*
%TO.C,S18*%
X157928581Y-98053408D03*
%TO.C,S47*%
X158060327Y-157361678D03*
%TO.C,S19*%
X158741513Y-85313731D03*
%TO.C,S48*%
X159054709Y-138387725D03*
%TO.C,S18*%
X160363545Y-107034897D03*
%TO.C,S19*%
X160900835Y-79287328D03*
%TO.C,S47*%
X161420774Y-166039444D03*
%TO.C,S17*%
X161625485Y-115304118D03*
%TO.C,S20*%
X161713768Y-66547658D03*
%TO.C,S48*%
X162415156Y-147065491D03*
%TO.C,S19*%
X163335799Y-88268817D03*
%TO.C,S20*%
X163873090Y-60521255D03*
%TO.C,S47*%
X164534559Y-155157493D03*
%TO.C,S18*%
X164597745Y-96538039D03*
%TO.C,S48*%
X165528941Y-136183540D03*
%TO.C,S20*%
X166308054Y-69502744D03*
%TO.C,S19*%
X167569999Y-77771959D03*
%TO.C,S20*%
X170542254Y-59005886D03*
%TO.C,S40*%
X215053502Y-68111997D03*
X215244878Y-61713280D03*
%TO.C,S39*%
X218025755Y-86878082D03*
X218217131Y-80479365D03*
%TO.C,S56*%
X219120711Y-145130176D03*
X219979887Y-138786517D03*
%TO.C,S55*%
X220115092Y-164104139D03*
%TO.C,S40*%
X220336100Y-69502738D03*
%TO.C,S55*%
X220974268Y-157760480D03*
%TO.C,S38*%
X220998009Y-105644154D03*
%TO.C,S40*%
X221119356Y-58211192D03*
%TO.C,S38*%
X221189385Y-99245437D03*
%TO.C,S39*%
X223308353Y-88268823D03*
%TO.C,S37*%
X223970268Y-124410236D03*
%TO.C,S39*%
X224091609Y-76977277D03*
%TO.C,S37*%
X224161644Y-118011519D03*
%TO.C,S56*%
X224228999Y-147065478D03*
%TO.C,S55*%
X225223380Y-166039441D03*
%TO.C,S56*%
X226188252Y-135917664D03*
%TO.C,S38*%
X226280607Y-107034895D03*
X227063863Y-95743349D03*
%TO.C,S55*%
X227182633Y-154891627D03*
%TO.C,S37*%
X229252866Y-125800977D03*
X230036122Y-114509431D03*
%TO.C,S36*%
X233350274Y-62176680D03*
X233541650Y-55777963D03*
%TO.C,S35*%
X236322528Y-80942758D03*
X236513904Y-74544041D03*
%TO.C,S54*%
X238094667Y-144135801D03*
%TO.C,S36*%
X238632872Y-63567421D03*
%TO.C,S54*%
X238953843Y-137792142D03*
%TO.C,S53*%
X239089052Y-163109759D03*
%TO.C,S34*%
X239294783Y-99708837D03*
%TO.C,S36*%
X239416128Y-52275875D03*
%TO.C,S34*%
X239486159Y-93310120D03*
%TO.C,S53*%
X239948228Y-156766100D03*
%TO.C,S35*%
X241605126Y-82333499D03*
%TO.C,S33*%
X242267038Y-118474913D03*
%TO.C,S35*%
X242388382Y-71041953D03*
%TO.C,S33*%
X242458414Y-112076196D03*
%TO.C,S54*%
X243202955Y-146071103D03*
%TO.C,S53*%
X244197340Y-165045061D03*
%TO.C,S34*%
X244577381Y-101099578D03*
%TO.C,S54*%
X245162208Y-134923289D03*
%TO.C,S34*%
X245360637Y-89808032D03*
%TO.C,S53*%
X246156593Y-153897247D03*
%TO.C,S33*%
X247549636Y-119865654D03*
X248332892Y-108574108D03*
%TO.C,S32*%
X251647050Y-56241356D03*
X251838426Y-49842639D03*
%TO.C,S31*%
X254619303Y-75007438D03*
X254810679Y-68608721D03*
%TO.C,S32*%
X256929648Y-57632097D03*
%TO.C,S52*%
X257068632Y-143141413D03*
%TO.C,S30*%
X257591556Y-93773514D03*
%TO.C,S32*%
X257712904Y-46340551D03*
%TO.C,S30*%
X257782932Y-87374797D03*
%TO.C,S52*%
X257927808Y-136797754D03*
%TO.C,S51*%
X258063007Y-162115379D03*
X258922183Y-155771720D03*
%TO.C,S31*%
X259901901Y-76398179D03*
%TO.C,S29*%
X260563814Y-112539590D03*
%TO.C,S31*%
X260685157Y-65106633D03*
%TO.C,S29*%
X260755190Y-106140873D03*
%TO.C,S52*%
X262176920Y-145076715D03*
%TO.C,S30*%
X262874154Y-95164255D03*
%TO.C,S51*%
X263171295Y-164050681D03*
%TO.C,S30*%
X263657410Y-83872709D03*
%TO.C,S52*%
X264136173Y-133928901D03*
%TO.C,S51*%
X265130548Y-152902867D03*
%TO.C,S29*%
X265846412Y-113930331D03*
X266629668Y-102638785D03*
%TO.C,S28*%
X270882429Y-56232169D03*
X271073805Y-49833452D03*
%TO.C,S27*%
X273854685Y-74998245D03*
X274046061Y-68599528D03*
%TO.C,S50*%
X276042589Y-142147030D03*
%TO.C,S28*%
X276165027Y-57622910D03*
%TO.C,S26*%
X276826939Y-93764324D03*
%TO.C,S50*%
X276901765Y-135803371D03*
%TO.C,S28*%
X276948283Y-46331364D03*
%TO.C,S26*%
X277018315Y-87365607D03*
%TO.C,S49*%
X277036978Y-161120995D03*
X277896154Y-154777336D03*
%TO.C,S27*%
X279137283Y-76388986D03*
%TO.C,S25*%
X279799196Y-112530406D03*
%TO.C,S27*%
X279920539Y-65097440D03*
%TO.C,S25*%
X279990572Y-106131689D03*
%TO.C,S50*%
X281150877Y-144082332D03*
%TO.C,S26*%
X282109537Y-95155065D03*
%TO.C,S49*%
X282145266Y-163056297D03*
%TO.C,S26*%
X282892793Y-83863519D03*
%TO.C,S50*%
X283110130Y-132934518D03*
%TO.C,S49*%
X284104519Y-151908483D03*
%TO.C,S25*%
X285081794Y-113921147D03*
X285865050Y-102629601D03*
%TO.C,S24*%
X290430681Y-58198354D03*
X290622057Y-51799637D03*
%TO.C,S23*%
X293402933Y-76964437D03*
X293594309Y-70565720D03*
%TO.C,S24*%
X295713279Y-59589095D03*
%TO.C,S22*%
X296375195Y-95730517D03*
%TO.C,S24*%
X296496535Y-48297549D03*
%TO.C,S22*%
X296566571Y-89331800D03*
%TO.C,S23*%
X298685531Y-78355178D03*
%TO.C,S21*%
X299347448Y-114496592D03*
%TO.C,S23*%
X299468787Y-67063632D03*
%TO.C,S21*%
X299538824Y-108097875D03*
%TO.C,S22*%
X301657793Y-97121258D03*
X302441049Y-85829712D03*
%TO.C,S21*%
X304630046Y-115887333D03*
X305413302Y-104595787D03*
D16*
%TO.C,S1*%
X82944888Y-110010583D03*
%TO.C,S2*%
X85917142Y-91244514D03*
%TO.C,S3*%
X88889396Y-72478435D03*
%TO.C,S4*%
X91861657Y-53712351D03*
%TO.C,S5*%
X102493143Y-108044401D03*
%TO.C,S41*%
X104810289Y-157114449D03*
%TO.C,S6*%
X105465399Y-89278314D03*
%TO.C,S42*%
X105804668Y-138140492D03*
%TO.C,S7*%
X108437651Y-70512241D03*
%TO.C,S8*%
X111409909Y-51746163D03*
%TO.C,S9*%
X121728524Y-108053591D03*
%TO.C,S43*%
X123784245Y-158108833D03*
%TO.C,S10*%
X124700781Y-89287517D03*
%TO.C,S44*%
X124778640Y-139134876D03*
%TO.C,S11*%
X127673031Y-70521433D03*
%TO.C,S12*%
X130645284Y-51755360D03*
%TO.C,S13*%
X140025296Y-113988909D03*
%TO.C,S45*%
X142758215Y-159103221D03*
%TO.C,S14*%
X142997554Y-95222837D03*
%TO.C,S46*%
X143752597Y-140129259D03*
%TO.C,S15*%
X145969809Y-76456754D03*
%TO.C,S16*%
X148942062Y-57690678D03*
%TO.C,S17*%
X158322070Y-119924231D03*
%TO.C,S18*%
X161294330Y-101158152D03*
%TO.C,S47*%
X161732173Y-160097598D03*
%TO.C,S48*%
X162726555Y-141123645D03*
%TO.C,S19*%
X164266584Y-82392072D03*
%TO.C,S20*%
X167238839Y-63625999D03*
%TO.C,S40*%
X219405314Y-63625993D03*
%TO.C,S39*%
X222377567Y-82392078D03*
%TO.C,S56*%
X223917599Y-141123636D03*
%TO.C,S55*%
X224911980Y-160097599D03*
%TO.C,S38*%
X225349821Y-101158150D03*
%TO.C,S37*%
X228322080Y-119924232D03*
%TO.C,S36*%
X237702086Y-57690676D03*
%TO.C,S35*%
X240674340Y-76456754D03*
%TO.C,S54*%
X242891555Y-140129261D03*
%TO.C,S34*%
X243646595Y-95222833D03*
%TO.C,S53*%
X243885940Y-159103219D03*
%TO.C,S33*%
X246618850Y-113988909D03*
%TO.C,S32*%
X255998862Y-51755352D03*
%TO.C,S31*%
X258971115Y-70521434D03*
%TO.C,S52*%
X261865520Y-139134873D03*
%TO.C,S30*%
X261943368Y-89287510D03*
%TO.C,S51*%
X262859895Y-158108839D03*
%TO.C,S29*%
X264915626Y-108053586D03*
%TO.C,S28*%
X275234241Y-51746165D03*
%TO.C,S27*%
X278206497Y-70512241D03*
%TO.C,S50*%
X280839477Y-138140490D03*
%TO.C,S26*%
X281178751Y-89278320D03*
%TO.C,S49*%
X281833866Y-157114455D03*
%TO.C,S25*%
X284151008Y-108044402D03*
%TO.C,S24*%
X294782493Y-53712350D03*
%TO.C,S23*%
X297754745Y-72478433D03*
%TO.C,S22*%
X300727007Y-91244513D03*
%TO.C,S21*%
X303699260Y-110010588D03*
M02*
