%TF.GenerationSoftware,KiCad,Pcbnew,9.0.2-9.0.2-0~ubuntu24.04.1*%
%TF.CreationDate,2025-06-01T16:16:25+02:00*%
%TF.ProjectId,gandalf,67616e64-616c-4662-9e6b-696361645f70,v1.0.0*%
%TF.SameCoordinates,Original*%
%TF.FileFunction,Soldermask,Bot*%
%TF.FilePolarity,Negative*%
%FSLAX46Y46*%
G04 Gerber Fmt 4.6, Leading zero omitted, Abs format (unit mm)*
G04 Created by KiCad (PCBNEW 9.0.2-9.0.2-0~ubuntu24.04.1) date 2025-06-01 16:16:25*
%MOMM*%
%LPD*%
G01*
G04 APERTURE LIST*
G04 Aperture macros list*
%AMRoundRect*
0 Rectangle with rounded corners*
0 $1 Rounding radius*
0 $2 $3 $4 $5 $6 $7 $8 $9 X,Y pos of 4 corners*
0 Add a 4 corners polygon primitive as box body*
4,1,4,$2,$3,$4,$5,$6,$7,$8,$9,$2,$3,0*
0 Add four circle primitives for the rounded corners*
1,1,$1+$1,$2,$3*
1,1,$1+$1,$4,$5*
1,1,$1+$1,$6,$7*
1,1,$1+$1,$8,$9*
0 Add four rect primitives between the rounded corners*
20,1,$1+$1,$2,$3,$4,$5,0*
20,1,$1+$1,$4,$5,$6,$7,0*
20,1,$1+$1,$6,$7,$8,$9,0*
20,1,$1+$1,$8,$9,$2,$3,0*%
G04 Aperture macros list end*
%ADD10RoundRect,0.050000X-0.663009X0.350599X-0.522217X-0.538320X0.663009X-0.350599X0.522217X0.538320X0*%
%ADD11RoundRect,0.050000X-0.522217X0.538320X-0.663009X-0.350599X0.522217X-0.538320X0.663009X0.350599X0*%
%ADD12RoundRect,0.050000X-0.575627X0.480785X-0.622729X-0.417982X0.575627X-0.480785X0.622729X0.417982X0*%
%ADD13C,3.900000*%
%ADD14RoundRect,0.050000X-0.622729X0.417982X-0.575627X-0.480785X0.622729X-0.417982X0.575627X0.480785X0*%
%ADD15C,1.800000*%
%ADD16C,1.000000*%
%ADD17O,1.800000X1.800000*%
%ADD18O,1.300000X1.850000*%
%ADD19RoundRect,0.260000X-0.390000X-0.665000X0.390000X-0.665000X0.390000X0.665000X-0.390000X0.665000X0*%
%ADD20RoundRect,0.050000X1.080630X1.487360X-1.487360X1.080630X-1.080630X-1.487360X1.487360X-1.080630X0*%
%ADD21RoundRect,0.050000X-1.063760X-1.434064X1.454846X-1.035156X1.063760X1.434064X-1.454846X1.035156X0*%
%ADD22C,2.000000*%
%ADD23C,3.100000*%
%ADD24C,5.100000*%
%ADD25RoundRect,0.050000X1.487360X1.080630X-1.080630X1.487360X-1.487360X-1.080630X1.080630X-1.487360X0*%
%ADD26RoundRect,0.050000X-1.454846X-1.035156X1.063760X-1.434064X1.454846X1.035156X-1.063760X1.434064X0*%
%ADD27RoundRect,0.050000X1.366255X1.230182X-1.230182X1.366255X-1.366255X-1.230182X1.230182X-1.366255X0*%
%ADD28RoundRect,0.050000X-1.338673X-1.181559X1.207833X-1.315015X1.338673X1.181559X-1.207833X1.315015X0*%
%ADD29RoundRect,0.050000X1.230182X1.366255X-1.366255X1.230182X-1.230182X-1.366255X1.366255X-1.230182X0*%
%ADD30RoundRect,0.050000X-1.207833X-1.315015X1.338673X-1.181559X1.207833X1.315015X-1.338673X1.181559X0*%
G04 APERTURE END LIST*
D10*
%TO.C,D35*%
X231779473Y-71436408D03*
X231263239Y-68177036D03*
%TD*%
D11*
%TO.C,D2*%
X79009000Y-83721216D03*
X79525234Y-80461844D03*
%TD*%
%TO.C,D7*%
X101529507Y-62988943D03*
X102045741Y-59729571D03*
%TD*%
%TO.C,D14*%
X136089402Y-87699536D03*
X136605636Y-84440164D03*
%TD*%
%TO.C,D17*%
X151413924Y-112400934D03*
X151930158Y-109141562D03*
%TD*%
%TO.C,D12*%
X123737142Y-44232060D03*
X124253376Y-40972688D03*
%TD*%
D10*
%TO.C,D39*%
X213482699Y-77371728D03*
X212966465Y-74112356D03*
%TD*%
D12*
%TO.C,D42*%
X98147963Y-131380504D03*
X98320671Y-128085028D03*
%TD*%
D10*
%TO.C,D36*%
X228807223Y-52670337D03*
X228290989Y-49410965D03*
%TD*%
%TO.C,D27*%
X269311630Y-65491902D03*
X268795396Y-62232530D03*
%TD*%
%TO.C,D40*%
X210510444Y-58605648D03*
X209994210Y-55346276D03*
%TD*%
D11*
%TO.C,D4*%
X84953506Y-46189053D03*
X85469740Y-42929681D03*
%TD*%
%TO.C,D10*%
X117792633Y-81764218D03*
X118308867Y-78504846D03*
%TD*%
%TO.C,D6*%
X98557253Y-81755028D03*
X99073487Y-78495656D03*
%TD*%
D13*
%TO.C,H1*%
X77540174Y-51444051D03*
%TD*%
D14*
%TO.C,D54*%
X234570185Y-134206649D03*
X234397477Y-130911171D03*
%TD*%
D15*
%TO.C,MCU1*%
X200942077Y-81865994D03*
X185702077Y-81865995D03*
X200942077Y-79325997D03*
X185702077Y-79325997D03*
X200942077Y-76785995D03*
X185702077Y-76785995D03*
X200942077Y-74245995D03*
X185702077Y-74245995D03*
X200942077Y-71705995D03*
X185702078Y-71705995D03*
X200942077Y-69165995D03*
X185702077Y-69165995D03*
X200942077Y-66625995D03*
X185702077Y-66625995D03*
X200942077Y-64085995D03*
X185702077Y-64085995D03*
X200942076Y-61545995D03*
X185702077Y-61545995D03*
X200942077Y-59005995D03*
X185702077Y-59005995D03*
X200942077Y-56465995D03*
X185702077Y-56465995D03*
X200942077Y-53925993D03*
X185702077Y-53925993D03*
%TD*%
D13*
%TO.C,H3*%
X68623409Y-107742294D03*
%TD*%
D10*
%TO.C,D37*%
X219427210Y-114903881D03*
X218910976Y-111644509D03*
%TD*%
D11*
%TO.C,D1*%
X76036743Y-102487287D03*
X76552977Y-99227915D03*
%TD*%
%TO.C,D11*%
X120764887Y-62998135D03*
X121281121Y-59738763D03*
%TD*%
D10*
%TO.C,D33*%
X237723985Y-108968565D03*
X237207751Y-105709193D03*
%TD*%
D11*
%TO.C,D19*%
X157358439Y-74868773D03*
X157874673Y-71609401D03*
%TD*%
D10*
%TO.C,D26*%
X272283884Y-84257978D03*
X271767650Y-80998606D03*
%TD*%
%TO.C,D23*%
X288859884Y-67458082D03*
X288343650Y-64198710D03*
%TD*%
%TO.C,D32*%
X247103996Y-46735008D03*
X246587762Y-43475636D03*
%TD*%
%TO.C,D30*%
X253048503Y-84267164D03*
X252532269Y-81007792D03*
%TD*%
D12*
%TO.C,D45*%
X135101510Y-152343231D03*
X135274218Y-149047755D03*
%TD*%
D13*
%TO.C,H6*%
X210132652Y-132929799D03*
%TD*%
D16*
%TO.C,PWR1*%
X177461271Y-50012959D03*
X174592358Y-49135838D03*
%TD*%
D11*
%TO.C,D5*%
X95584992Y-100521110D03*
X96101226Y-97261738D03*
%TD*%
%TO.C,D8*%
X104501761Y-44222870D03*
X105017995Y-40963498D03*
%TD*%
D10*
%TO.C,D24*%
X285887633Y-48692003D03*
X285371399Y-45432631D03*
%TD*%
D12*
%TO.C,D44*%
X117121932Y-132374887D03*
X117294640Y-129079411D03*
%TD*%
D10*
%TO.C,D28*%
X266339371Y-46725822D03*
X265823137Y-43466450D03*
%TD*%
%TO.C,D21*%
X294804394Y-104990248D03*
X294288160Y-101730876D03*
%TD*%
D11*
%TO.C,D9*%
X114820376Y-100530295D03*
X115336610Y-97270923D03*
%TD*%
%TO.C,D3*%
X81981253Y-64955134D03*
X82497487Y-61695762D03*
%TD*%
D10*
%TO.C,D34*%
X234751731Y-90202485D03*
X234235497Y-86943113D03*
%TD*%
D12*
%TO.C,D43*%
X116127546Y-151348850D03*
X116300254Y-148053374D03*
%TD*%
%TO.C,D41*%
X97153588Y-150354470D03*
X97326296Y-147058994D03*
%TD*%
D11*
%TO.C,D18*%
X154386181Y-93634858D03*
X154902415Y-90375486D03*
%TD*%
D10*
%TO.C,D29*%
X256020763Y-103033241D03*
X255504529Y-99773869D03*
%TD*%
%TO.C,D22*%
X291832141Y-86224161D03*
X291315907Y-82964789D03*
%TD*%
D12*
%TO.C,D46*%
X136095889Y-133369278D03*
X136268597Y-130073802D03*
%TD*%
%TO.C,D47*%
X154075467Y-153337613D03*
X154248175Y-150042137D03*
%TD*%
D10*
%TO.C,D38*%
X216454948Y-96137805D03*
X215938714Y-92878433D03*
%TD*%
D17*
%TO.C,DISP1*%
X197132074Y-120858148D03*
X194592074Y-120858150D03*
X192052074Y-120858150D03*
X189512074Y-120858148D03*
%TD*%
D13*
%TO.C,H2*%
X309103977Y-51444049D03*
%TD*%
D11*
%TO.C,D13*%
X133117159Y-106465617D03*
X133633393Y-103206245D03*
%TD*%
D12*
%TO.C,D48*%
X155069853Y-134363658D03*
X155242561Y-131068182D03*
%TD*%
D14*
%TO.C,D55*%
X216590608Y-154174988D03*
X216417900Y-150879510D03*
%TD*%
%TO.C,D51*%
X254538525Y-152186224D03*
X254365817Y-148890746D03*
%TD*%
D18*
%TO.C,JST1*%
X192322071Y-89873309D03*
D19*
X194322071Y-89873309D03*
%TD*%
D13*
%TO.C,H4*%
X318020734Y-107742287D03*
%TD*%
%TO.C,H5*%
X176511493Y-132929800D03*
%TD*%
D14*
%TO.C,D53*%
X235564569Y-153180606D03*
X235391861Y-149885128D03*
%TD*%
%TO.C,D52*%
X253544144Y-133212268D03*
X253371436Y-129916790D03*
%TD*%
%TO.C,D50*%
X272518105Y-132217880D03*
X272345397Y-128922402D03*
%TD*%
D11*
%TO.C,D20*%
X160330693Y-56102698D03*
X160846927Y-52843326D03*
%TD*%
D10*
%TO.C,D31*%
X250076248Y-65501089D03*
X249560014Y-62241717D03*
%TD*%
D11*
%TO.C,D15*%
X139061661Y-68933460D03*
X139577895Y-65674088D03*
%TD*%
%TO.C,D16*%
X142033914Y-50167381D03*
X142550148Y-46908009D03*
%TD*%
D14*
%TO.C,D49*%
X273512488Y-151191842D03*
X273339780Y-147896364D03*
%TD*%
D10*
%TO.C,D25*%
X275256139Y-103024057D03*
X274739905Y-99764685D03*
%TD*%
D14*
%TO.C,D56*%
X215596229Y-135201028D03*
X215423521Y-131905550D03*
%TD*%
D20*
%TO.C,S31*%
X251384623Y-75519759D03*
D21*
X251576000Y-69121043D03*
D20*
X263136580Y-75885856D03*
D21*
X263946503Y-64590087D03*
D22*
X253538829Y-71381823D03*
X253953659Y-71316120D03*
D23*
X254619303Y-75007438D03*
X254810679Y-68608721D03*
X259901901Y-76398179D03*
D24*
X258971115Y-70521434D03*
D23*
X260685157Y-65106633D03*
D22*
X263988571Y-69726748D03*
X264403401Y-69661045D03*
%TD*%
D25*
%TO.C,S16*%
X140182312Y-60100013D03*
D26*
X142341634Y-54073611D03*
D25*
X151245956Y-64079745D03*
D26*
X155506825Y-53587114D03*
D22*
X143509777Y-56830288D03*
X143924606Y-56895992D03*
D23*
X143416991Y-60612337D03*
X145576313Y-54585934D03*
X148011277Y-63567423D03*
D24*
X148942062Y-57690678D03*
D23*
X152245477Y-53070565D03*
D22*
X153959518Y-58485364D03*
X154374347Y-58551068D03*
%TD*%
D25*
%TO.C,S15*%
X137210059Y-78866089D03*
D26*
X139369381Y-72839687D03*
D25*
X148273703Y-82845821D03*
D26*
X152534572Y-72353190D03*
D22*
X140537524Y-75596364D03*
X140952353Y-75662068D03*
D23*
X140444738Y-79378413D03*
X142604060Y-73352010D03*
X145039024Y-82333499D03*
D24*
X145969809Y-76456754D03*
D23*
X149273224Y-71836641D03*
D22*
X150987265Y-77251440D03*
X151402094Y-77317144D03*
%TD*%
D25*
%TO.C,S14*%
X134237804Y-97632172D03*
D26*
X136397126Y-91605770D03*
D25*
X145301448Y-101611904D03*
D26*
X149562317Y-91119273D03*
D22*
X137565269Y-94362447D03*
X137980098Y-94428151D03*
D23*
X137472483Y-98144496D03*
X139631805Y-92118093D03*
X142066769Y-101099582D03*
D24*
X142997554Y-95222837D03*
D23*
X146300969Y-90602724D03*
D22*
X148015010Y-96017523D03*
X148429839Y-96083227D03*
%TD*%
D25*
%TO.C,S13*%
X131265546Y-116398244D03*
D26*
X133424868Y-110371842D03*
D25*
X142329190Y-120377976D03*
D26*
X146590059Y-109885345D03*
D22*
X134593011Y-113128519D03*
X135007840Y-113194223D03*
D23*
X134500225Y-116910568D03*
X136659547Y-110884165D03*
X139094511Y-119865654D03*
D24*
X140025296Y-113988909D03*
D23*
X143328711Y-109368796D03*
D22*
X145042752Y-114783595D03*
X145457581Y-114849299D03*
%TD*%
D25*
%TO.C,S12*%
X121885534Y-54164695D03*
D26*
X124044856Y-48138293D03*
D25*
X132949178Y-58144427D03*
D26*
X137210047Y-47651796D03*
D22*
X125212999Y-50894970D03*
X125627828Y-50960674D03*
D23*
X125120213Y-54677019D03*
X127279535Y-48650616D03*
X129714499Y-57632105D03*
D24*
X130645284Y-51755360D03*
D23*
X133948699Y-47135247D03*
D22*
X135662740Y-52550046D03*
X136077569Y-52615750D03*
%TD*%
D25*
%TO.C,S11*%
X118913281Y-72930768D03*
D26*
X121072603Y-66904366D03*
D25*
X129976925Y-76910500D03*
D26*
X134237794Y-66417869D03*
D22*
X122240746Y-69661043D03*
X122655575Y-69726747D03*
D23*
X122147960Y-73443092D03*
X124307282Y-67416689D03*
X126742246Y-76398178D03*
D24*
X127673031Y-70521433D03*
D23*
X130976446Y-65901320D03*
D22*
X132690487Y-71316119D03*
X133105316Y-71381823D03*
%TD*%
D25*
%TO.C,S10*%
X115941031Y-91696852D03*
D26*
X118100353Y-85670450D03*
D25*
X127004675Y-95676584D03*
D26*
X131265544Y-85183953D03*
D22*
X119268496Y-88427127D03*
X119683325Y-88492831D03*
D23*
X119175710Y-92209176D03*
X121335032Y-86182773D03*
X123769996Y-95164262D03*
D24*
X124700781Y-89287517D03*
D23*
X128004196Y-84667404D03*
D22*
X129718237Y-90082203D03*
X130133066Y-90147907D03*
%TD*%
D25*
%TO.C,S9*%
X112968774Y-110462926D03*
D26*
X115128096Y-104436524D03*
D25*
X124032418Y-114442658D03*
D26*
X128293287Y-103950027D03*
D22*
X116296239Y-107193201D03*
X116711068Y-107258905D03*
D23*
X116203453Y-110975250D03*
X118362775Y-104948847D03*
X120797739Y-113930336D03*
D24*
X121728524Y-108053591D03*
D23*
X125031939Y-103433478D03*
D22*
X126745980Y-108848277D03*
X127160809Y-108913981D03*
%TD*%
D27*
%TO.C,S46*%
X135292678Y-143441040D03*
D28*
X136810240Y-137221935D03*
D27*
X146711710Y-146242505D03*
D28*
X149852457Y-135361968D03*
D22*
X138260135Y-139841411D03*
X138679559Y-139863392D03*
D23*
X138563189Y-143612441D03*
X140080751Y-137393339D03*
X143441198Y-146071105D03*
D24*
X143752597Y-140129259D03*
D23*
X146554983Y-135189154D03*
D22*
X148825635Y-140395126D03*
X149245059Y-140417107D03*
%TD*%
D27*
%TO.C,S44*%
X116318721Y-142446657D03*
D28*
X117836283Y-136227552D03*
D27*
X127737753Y-145248122D03*
D28*
X130878500Y-134367585D03*
D22*
X119286178Y-138847028D03*
X119705602Y-138869009D03*
D23*
X119589232Y-142618058D03*
X121106794Y-136398956D03*
X124467241Y-145076722D03*
D24*
X124778640Y-139134876D03*
D23*
X127581026Y-134194771D03*
D22*
X129851678Y-139400743D03*
X130271102Y-139422724D03*
%TD*%
D29*
%TO.C,S50*%
X272772077Y-142318431D03*
D30*
X273631253Y-135974772D03*
D29*
X284421388Y-143910936D03*
D30*
X286407604Y-132761705D03*
D22*
X275347015Y-138428338D03*
X275766439Y-138406357D03*
D23*
X276042589Y-142147030D03*
X276901765Y-135803371D03*
X281150877Y-144082332D03*
D24*
X280839477Y-138140490D03*
D23*
X283110130Y-132934518D03*
D22*
X285912515Y-137874623D03*
X286331939Y-137852642D03*
%TD*%
D27*
%TO.C,S43*%
X115324326Y-161420614D03*
D28*
X116841888Y-155201509D03*
D27*
X126743358Y-164222079D03*
D28*
X129884105Y-153341542D03*
D22*
X118291783Y-157820985D03*
X118711207Y-157842966D03*
D23*
X118594837Y-161592015D03*
X120112399Y-155372913D03*
X123472846Y-164050679D03*
D24*
X123784245Y-158108833D03*
D23*
X126586631Y-153168728D03*
D22*
X128857283Y-158374700D03*
X129276707Y-158396681D03*
%TD*%
D20*
%TO.C,S30*%
X254356876Y-94285835D03*
D21*
X254548253Y-87887119D03*
D20*
X266108833Y-94651932D03*
D21*
X266918756Y-83356163D03*
D22*
X256511082Y-90147899D03*
X256925912Y-90082196D03*
D23*
X257591556Y-93773514D03*
X257782932Y-87374797D03*
X262874154Y-95164255D03*
D24*
X261943368Y-89287510D03*
D23*
X263657410Y-83872709D03*
D22*
X266960824Y-88492824D03*
X267375654Y-88427121D03*
%TD*%
D20*
%TO.C,S29*%
X257329134Y-113051911D03*
D21*
X257520511Y-106653195D03*
D20*
X269081091Y-113418008D03*
D21*
X269891014Y-102122239D03*
D22*
X259483340Y-108913975D03*
X259898170Y-108848272D03*
D23*
X260563814Y-112539590D03*
X260755190Y-106140873D03*
X265846412Y-113930331D03*
D24*
X264915626Y-108053586D03*
D23*
X266629668Y-102638785D03*
D22*
X269933082Y-107258900D03*
X270347912Y-107193197D03*
%TD*%
D20*
%TO.C,S28*%
X267647749Y-56744490D03*
D21*
X267839126Y-50345774D03*
D20*
X279399706Y-57110587D03*
D21*
X280209629Y-45814818D03*
D22*
X269801955Y-52606554D03*
X270216785Y-52540851D03*
D23*
X270882429Y-56232169D03*
X271073805Y-49833452D03*
X276165027Y-57622910D03*
D24*
X275234241Y-51746165D03*
D23*
X276948283Y-46331364D03*
D22*
X280251697Y-50951479D03*
X280666527Y-50885776D03*
%TD*%
D20*
%TO.C,S27*%
X270620005Y-75510566D03*
D21*
X270811382Y-69111850D03*
D20*
X282371962Y-75876663D03*
D21*
X283181885Y-64580894D03*
D22*
X272774211Y-71372630D03*
X273189041Y-71306927D03*
D23*
X273854685Y-74998245D03*
X274046061Y-68599528D03*
X279137283Y-76388986D03*
D24*
X278206497Y-70512241D03*
D23*
X279920539Y-65097440D03*
D22*
X283223953Y-69717555D03*
X283638783Y-69651852D03*
%TD*%
D20*
%TO.C,S23*%
X290168253Y-77476758D03*
D21*
X290359630Y-71078042D03*
D20*
X301920210Y-77842855D03*
D21*
X302730133Y-66547086D03*
D22*
X292322459Y-73338822D03*
X292737289Y-73273119D03*
D23*
X293402933Y-76964437D03*
X293594309Y-70565720D03*
X298685531Y-78355178D03*
D24*
X297754745Y-72478433D03*
D23*
X299468787Y-67063632D03*
D22*
X302772201Y-71683747D03*
X303187031Y-71618044D03*
%TD*%
D20*
%TO.C,S39*%
X214791075Y-87390403D03*
D21*
X214982452Y-80991687D03*
D20*
X226543032Y-87756500D03*
D21*
X227352955Y-76460731D03*
D22*
X216945281Y-83252467D03*
X217360111Y-83186764D03*
D23*
X218025755Y-86878082D03*
X218217131Y-80479365D03*
X223308353Y-88268823D03*
D24*
X222377567Y-82392078D03*
D23*
X224091609Y-76977277D03*
D22*
X227395023Y-81597392D03*
X227809853Y-81531689D03*
%TD*%
D25*
%TO.C,S8*%
X102650159Y-54155498D03*
D26*
X104809481Y-48129096D03*
D25*
X113713803Y-58135230D03*
D26*
X117974672Y-47642599D03*
D22*
X105977624Y-50885773D03*
X106392453Y-50951477D03*
D23*
X105884838Y-54667822D03*
X108044160Y-48641419D03*
X110479124Y-57622908D03*
D24*
X111409909Y-51746163D03*
D23*
X114713324Y-47126050D03*
D22*
X116427365Y-52540849D03*
X116842194Y-52606553D03*
%TD*%
D29*
%TO.C,S49*%
X273766466Y-161292396D03*
D30*
X274625642Y-154948737D03*
D29*
X285415777Y-162884901D03*
D30*
X287401993Y-151735670D03*
D22*
X276341404Y-157402303D03*
X276760828Y-157380322D03*
D23*
X277036978Y-161120995D03*
X277896154Y-154777336D03*
X282145266Y-163056297D03*
D24*
X281833866Y-157114455D03*
D23*
X284104519Y-151908483D03*
D22*
X286906904Y-156848588D03*
X287326328Y-156826607D03*
%TD*%
D29*
%TO.C,S56*%
X215850199Y-145301577D03*
D30*
X216709375Y-138957918D03*
D29*
X227499510Y-146894082D03*
D30*
X229485726Y-135744851D03*
D22*
X218425137Y-141411484D03*
X218844561Y-141389503D03*
D23*
X219120711Y-145130176D03*
X219979887Y-138786517D03*
X224228999Y-147065478D03*
D24*
X223917599Y-141123636D03*
D23*
X226188252Y-135917664D03*
D22*
X228990637Y-140857769D03*
X229410061Y-140835788D03*
%TD*%
D25*
%TO.C,S7*%
X99677901Y-72921576D03*
D26*
X101837223Y-66895174D03*
D25*
X110741545Y-76901308D03*
D26*
X115002414Y-66408677D03*
D22*
X103005366Y-69651851D03*
X103420195Y-69717555D03*
D23*
X102912580Y-73433900D03*
X105071902Y-67407497D03*
X107506866Y-76388986D03*
D24*
X108437651Y-70512241D03*
D23*
X111741066Y-65892128D03*
D22*
X113455107Y-71306927D03*
X113869936Y-71372631D03*
%TD*%
D25*
%TO.C,S6*%
X96705649Y-91687649D03*
D26*
X98864971Y-85661247D03*
D25*
X107769293Y-95667381D03*
D26*
X112030162Y-85174750D03*
D22*
X100033114Y-88417924D03*
X100447943Y-88483628D03*
D23*
X99940328Y-92199973D03*
X102099650Y-86173570D03*
X104534614Y-95155059D03*
D24*
X105465399Y-89278314D03*
D23*
X108768814Y-84658201D03*
D22*
X110482855Y-90073000D03*
X110897684Y-90138704D03*
%TD*%
D25*
%TO.C,S5*%
X93733393Y-110453736D03*
D26*
X95892715Y-104427334D03*
D25*
X104797037Y-114433468D03*
D26*
X109057906Y-103940837D03*
D22*
X97060858Y-107184011D03*
X97475687Y-107249715D03*
D23*
X96968072Y-110966060D03*
X99127394Y-104939657D03*
X101562358Y-113921146D03*
D24*
X102493143Y-108044401D03*
D23*
X105796558Y-103424288D03*
D22*
X107510599Y-108839087D03*
X107925428Y-108904791D03*
%TD*%
D25*
%TO.C,S4*%
X83101907Y-56121686D03*
D26*
X85261229Y-50095284D03*
D25*
X94165551Y-60101418D03*
D26*
X98426420Y-49608787D03*
D22*
X86429372Y-52851961D03*
X86844201Y-52917665D03*
D23*
X86336586Y-56634010D03*
X88495908Y-50607607D03*
X90930872Y-59589096D03*
D24*
X91861657Y-53712351D03*
D23*
X95165072Y-49092238D03*
D22*
X96879113Y-54507037D03*
X97293942Y-54572741D03*
%TD*%
D29*
%TO.C,S55*%
X216844580Y-164275540D03*
D30*
X217703756Y-157931881D03*
D29*
X228493891Y-165868045D03*
D30*
X230480107Y-154718814D03*
D22*
X219419518Y-160385447D03*
X219838942Y-160363466D03*
D23*
X220115092Y-164104139D03*
X220974268Y-157760480D03*
X225223380Y-166039441D03*
D24*
X224911980Y-160097599D03*
D23*
X227182633Y-154891627D03*
D22*
X229985018Y-159831732D03*
X230404442Y-159809751D03*
%TD*%
D20*
%TO.C,S26*%
X273592259Y-94276645D03*
D21*
X273783636Y-87877929D03*
D20*
X285344216Y-94642742D03*
D21*
X286154139Y-83346973D03*
D22*
X275746465Y-90138709D03*
X276161295Y-90073006D03*
D23*
X276826939Y-93764324D03*
X277018315Y-87365607D03*
X282109537Y-95155065D03*
D24*
X281178751Y-89278320D03*
D23*
X282892793Y-83863519D03*
D22*
X286196207Y-88483634D03*
X286611037Y-88417931D03*
%TD*%
D25*
%TO.C,S3*%
X80129646Y-74887770D03*
D26*
X82288968Y-68861368D03*
D25*
X91193290Y-78867502D03*
D26*
X95454159Y-68374871D03*
D22*
X83457111Y-71618045D03*
X83871940Y-71683749D03*
D23*
X83364325Y-75400094D03*
X85523647Y-69373691D03*
X87958611Y-78355180D03*
D24*
X88889396Y-72478435D03*
D23*
X92192811Y-67858322D03*
D22*
X93906852Y-73273121D03*
X94321681Y-73338825D03*
%TD*%
D25*
%TO.C,S2*%
X77157392Y-93653849D03*
D26*
X79316714Y-87627447D03*
D25*
X88221036Y-97633581D03*
D26*
X92481905Y-87140950D03*
D22*
X80484857Y-90384124D03*
X80899686Y-90449828D03*
D23*
X80392071Y-94166173D03*
X82551393Y-88139770D03*
X84986357Y-97121259D03*
D24*
X85917142Y-91244514D03*
D23*
X89220557Y-86624401D03*
D22*
X90934598Y-92039200D03*
X91349427Y-92104904D03*
%TD*%
D25*
%TO.C,S1*%
X74185138Y-112419918D03*
D26*
X76344460Y-106393516D03*
D25*
X85248782Y-116399650D03*
D26*
X89509651Y-105907019D03*
D22*
X77512603Y-109150193D03*
X77927432Y-109215897D03*
D23*
X77419817Y-112932242D03*
X79579139Y-106905839D03*
X82014103Y-115887328D03*
D24*
X82944888Y-110010583D03*
D23*
X86248303Y-105390470D03*
D22*
X87962344Y-110805269D03*
X88377173Y-110870973D03*
%TD*%
D20*
%TO.C,S25*%
X276564516Y-113042727D03*
D21*
X276755893Y-106644011D03*
D20*
X288316473Y-113408824D03*
D21*
X289126396Y-102113055D03*
D22*
X278718722Y-108904791D03*
X279133552Y-108839088D03*
D23*
X279799196Y-112530406D03*
X279990572Y-106131689D03*
X285081794Y-113921147D03*
D24*
X284151008Y-108044402D03*
D23*
X285865050Y-102629601D03*
D22*
X289168464Y-107249716D03*
X289583294Y-107184013D03*
%TD*%
D20*
%TO.C,S24*%
X287196001Y-58710675D03*
D21*
X287387378Y-52311959D03*
D20*
X298947958Y-59076772D03*
D21*
X299757881Y-47781003D03*
D22*
X289350207Y-54572739D03*
X289765037Y-54507036D03*
D23*
X290430681Y-58198354D03*
X290622057Y-51799637D03*
X295713279Y-59589095D03*
D24*
X294782493Y-53712350D03*
D23*
X296496535Y-48297549D03*
D22*
X299799949Y-52917664D03*
X300214779Y-52851961D03*
%TD*%
D20*
%TO.C,S22*%
X293140515Y-96242838D03*
D21*
X293331892Y-89844122D03*
D20*
X304892472Y-96608935D03*
D21*
X305702395Y-85313166D03*
D22*
X295294721Y-92104902D03*
X295709551Y-92039199D03*
D23*
X296375195Y-95730517D03*
X296566571Y-89331800D03*
X301657793Y-97121258D03*
D24*
X300727007Y-91244513D03*
D23*
X302441049Y-85829712D03*
D22*
X305744463Y-90449827D03*
X306159293Y-90384124D03*
%TD*%
D20*
%TO.C,S21*%
X296112768Y-115008913D03*
D21*
X296304145Y-108610197D03*
D20*
X307864725Y-115375010D03*
D21*
X308674648Y-104079241D03*
D22*
X298266974Y-110870977D03*
X298681804Y-110805274D03*
D23*
X299347448Y-114496592D03*
X299538824Y-108097875D03*
X304630046Y-115887333D03*
D24*
X303699260Y-110010588D03*
D23*
X305413302Y-104595787D03*
D22*
X308716716Y-109215902D03*
X309131546Y-109150199D03*
%TD*%
D25*
%TO.C,S20*%
X158479089Y-66035334D03*
D26*
X160638411Y-60008932D03*
D25*
X169542733Y-70015066D03*
D26*
X173803602Y-59522435D03*
D22*
X161806554Y-62765609D03*
X162221383Y-62831313D03*
D23*
X161713768Y-66547658D03*
X163873090Y-60521255D03*
X166308054Y-69502744D03*
D24*
X167238839Y-63625999D03*
D23*
X170542254Y-59005886D03*
D22*
X172256295Y-64420685D03*
X172671124Y-64486389D03*
%TD*%
D20*
%TO.C,S38*%
X217763329Y-106156475D03*
D21*
X217954706Y-99757759D03*
D20*
X229515286Y-106522572D03*
D21*
X230325209Y-95226803D03*
D22*
X219917535Y-102018539D03*
X220332365Y-101952836D03*
D23*
X220998009Y-105644154D03*
X221189385Y-99245437D03*
X226280607Y-107034895D03*
D24*
X225349821Y-101158150D03*
D23*
X227063863Y-95743349D03*
D22*
X230367277Y-100363464D03*
X230782107Y-100297761D03*
%TD*%
D27*
%TO.C,S45*%
X134298296Y-162415002D03*
D28*
X135815858Y-156195897D03*
D27*
X145717328Y-165216467D03*
D28*
X148858075Y-154335930D03*
D22*
X137265753Y-158815373D03*
X137685177Y-158837354D03*
D23*
X137568807Y-162586403D03*
X139086369Y-156367301D03*
X142446816Y-165045067D03*
D24*
X142758215Y-159103221D03*
D23*
X145560601Y-154163116D03*
D22*
X147831253Y-159369088D03*
X148250677Y-159391069D03*
%TD*%
D20*
%TO.C,S37*%
X220735588Y-124922557D03*
D21*
X220926965Y-118523841D03*
D20*
X232487545Y-125288654D03*
D21*
X233297468Y-113992885D03*
D22*
X222889794Y-120784621D03*
X223304624Y-120718918D03*
D23*
X223970268Y-124410236D03*
X224161644Y-118011519D03*
X229252866Y-125800977D03*
D24*
X228322080Y-119924232D03*
D23*
X230036122Y-114509431D03*
D22*
X233339536Y-119129546D03*
X233754366Y-119063843D03*
%TD*%
D27*
%TO.C,S48*%
X154266636Y-144435426D03*
D28*
X155784198Y-138216321D03*
D27*
X165685668Y-147236891D03*
D28*
X168826415Y-136356354D03*
D22*
X157234093Y-140835797D03*
X157653517Y-140857778D03*
D23*
X157537147Y-144606827D03*
X159054709Y-138387725D03*
X162415156Y-147065491D03*
D24*
X162726555Y-141123645D03*
D23*
X165528941Y-136183540D03*
D22*
X167799593Y-141389512D03*
X168219017Y-141411493D03*
%TD*%
D27*
%TO.C,S42*%
X97344749Y-141452273D03*
D28*
X98862311Y-135233168D03*
D27*
X108763781Y-144253738D03*
D28*
X111904528Y-133373201D03*
D22*
X100312206Y-137852644D03*
X100731630Y-137874625D03*
D23*
X100615260Y-141623674D03*
X102132822Y-135404572D03*
X105493269Y-144082338D03*
D24*
X105804668Y-138140492D03*
D23*
X108607054Y-133200387D03*
D22*
X110877706Y-138406359D03*
X111297130Y-138428340D03*
%TD*%
D29*
%TO.C,S54*%
X234824155Y-144307202D03*
D30*
X235683331Y-137963543D03*
D29*
X246473466Y-145899707D03*
D30*
X248459682Y-134750476D03*
D22*
X237399093Y-140417109D03*
X237818517Y-140395128D03*
D23*
X238094667Y-144135801D03*
X238953843Y-137792142D03*
X243202955Y-146071103D03*
D24*
X242891555Y-140129261D03*
D23*
X245162208Y-134923289D03*
D22*
X247964593Y-139863394D03*
X248384017Y-139841413D03*
%TD*%
D27*
%TO.C,S41*%
X96350370Y-160426230D03*
D28*
X97867932Y-154207125D03*
D27*
X107769402Y-163227695D03*
D28*
X110910149Y-152347158D03*
D22*
X99317827Y-156826601D03*
X99737251Y-156848582D03*
D23*
X99620881Y-160597631D03*
X101138443Y-154378529D03*
X104498890Y-163056295D03*
D24*
X104810289Y-157114449D03*
D23*
X107612675Y-152174344D03*
D22*
X109883327Y-157380316D03*
X110302751Y-157402297D03*
%TD*%
D25*
%TO.C,S19*%
X155506834Y-84801407D03*
D26*
X157666156Y-78775005D03*
D25*
X166570478Y-88781139D03*
D26*
X170831347Y-78288508D03*
D22*
X158834299Y-81531682D03*
X159249128Y-81597386D03*
D23*
X158741513Y-85313731D03*
X160900835Y-79287328D03*
X163335799Y-88268817D03*
D24*
X164266584Y-82392072D03*
D23*
X167569999Y-77771959D03*
D22*
X169284040Y-83186758D03*
X169698869Y-83252462D03*
%TD*%
D25*
%TO.C,S18*%
X152534580Y-103567487D03*
D26*
X154693902Y-97541085D03*
D25*
X163598224Y-107547219D03*
D26*
X167859093Y-97054588D03*
D22*
X155862045Y-100297762D03*
X156276874Y-100363466D03*
D23*
X155769259Y-104079811D03*
X157928581Y-98053408D03*
X160363545Y-107034897D03*
D24*
X161294330Y-101158152D03*
D23*
X164597745Y-96538039D03*
D22*
X166311786Y-101952838D03*
X166726615Y-102018542D03*
%TD*%
D27*
%TO.C,S47*%
X153272254Y-163409379D03*
D28*
X154789816Y-157190274D03*
D27*
X164691286Y-166210844D03*
D28*
X167832033Y-155330307D03*
D22*
X156239711Y-159809750D03*
X156659135Y-159831731D03*
D23*
X156542765Y-163580780D03*
X158060327Y-157361678D03*
X161420774Y-166039444D03*
D24*
X161732173Y-160097598D03*
D23*
X164534559Y-155157493D03*
D22*
X166805211Y-160363465D03*
X167224635Y-160385446D03*
%TD*%
D29*
%TO.C,S53*%
X235818540Y-163281160D03*
D30*
X236677716Y-156937501D03*
D29*
X247467851Y-164873665D03*
D30*
X249454067Y-153724434D03*
D22*
X238393478Y-159391067D03*
X238812902Y-159369086D03*
D23*
X239089052Y-163109759D03*
X239948228Y-156766100D03*
X244197340Y-165045061D03*
D24*
X243885940Y-159103219D03*
D23*
X246156593Y-153897247D03*
D22*
X248958978Y-158837352D03*
X249378402Y-158815371D03*
%TD*%
D20*
%TO.C,S36*%
X230115594Y-62689001D03*
D21*
X230306971Y-56290285D03*
D20*
X241867551Y-63055098D03*
D21*
X242677474Y-51759329D03*
D22*
X232269800Y-58551065D03*
X232684630Y-58485362D03*
D23*
X233350274Y-62176680D03*
X233541650Y-55777963D03*
X238632872Y-63567421D03*
D24*
X237702086Y-57690676D03*
D23*
X239416128Y-52275875D03*
D22*
X242719542Y-56895990D03*
X243134372Y-56830287D03*
%TD*%
D29*
%TO.C,S52*%
X253798120Y-143312814D03*
D30*
X254657296Y-136969155D03*
D29*
X265447431Y-144905319D03*
D30*
X267433647Y-133756088D03*
D22*
X256373058Y-139422721D03*
X256792482Y-139400740D03*
D23*
X257068632Y-143141413D03*
X257927808Y-136797754D03*
X262176920Y-145076715D03*
D24*
X261865520Y-139134873D03*
D23*
X264136173Y-133928901D03*
D22*
X266938558Y-138869006D03*
X267357982Y-138847025D03*
%TD*%
D20*
%TO.C,S40*%
X211818822Y-68624318D03*
D21*
X212010199Y-62225602D03*
D20*
X223570779Y-68990415D03*
D21*
X224380702Y-57694646D03*
D22*
X213973028Y-64486382D03*
X214387858Y-64420679D03*
D23*
X215053502Y-68111997D03*
X215244878Y-61713280D03*
X220336100Y-69502738D03*
D24*
X219405314Y-63625993D03*
D23*
X221119356Y-58211192D03*
D22*
X224422770Y-62831307D03*
X224837600Y-62765604D03*
%TD*%
D25*
%TO.C,S17*%
X149562320Y-122333566D03*
D26*
X151721642Y-116307164D03*
D25*
X160625964Y-126313298D03*
D26*
X164886833Y-115820667D03*
D22*
X152889785Y-119063841D03*
X153304614Y-119129545D03*
D23*
X152796999Y-122845890D03*
X154956321Y-116819487D03*
X157391285Y-125800976D03*
D24*
X158322070Y-119924231D03*
D23*
X161625485Y-115304118D03*
D22*
X163339526Y-120718917D03*
X163754355Y-120784621D03*
%TD*%
D29*
%TO.C,S51*%
X254792495Y-162286780D03*
D30*
X255651671Y-155943121D03*
D29*
X266441806Y-163879285D03*
D30*
X268428022Y-152730054D03*
D22*
X257367433Y-158396687D03*
X257786857Y-158374706D03*
D23*
X258063007Y-162115379D03*
X258922183Y-155771720D03*
X263171295Y-164050681D03*
D24*
X262859895Y-158108839D03*
D23*
X265130548Y-152902867D03*
D22*
X267932933Y-157842972D03*
X268352357Y-157820991D03*
%TD*%
D20*
%TO.C,S35*%
X233087848Y-81455079D03*
D21*
X233279225Y-75056363D03*
D20*
X244839805Y-81821176D03*
D21*
X245649728Y-70525407D03*
D22*
X235242054Y-77317143D03*
X235656884Y-77251440D03*
D23*
X236322528Y-80942758D03*
X236513904Y-74544041D03*
X241605126Y-82333499D03*
D24*
X240674340Y-76456754D03*
D23*
X242388382Y-71041953D03*
D22*
X245691796Y-75662068D03*
X246106626Y-75596365D03*
%TD*%
D20*
%TO.C,S32*%
X248412370Y-56753677D03*
D21*
X248603747Y-50354961D03*
D20*
X260164327Y-57119774D03*
D21*
X260974250Y-45824005D03*
D22*
X250566576Y-52615741D03*
X250981406Y-52550038D03*
D23*
X251647050Y-56241356D03*
X251838426Y-49842639D03*
X256929648Y-57632097D03*
D24*
X255998862Y-51755352D03*
D23*
X257712904Y-46340551D03*
D22*
X261016318Y-50960666D03*
X261431148Y-50894963D03*
%TD*%
D20*
%TO.C,S34*%
X236060103Y-100221158D03*
D21*
X236251480Y-93822442D03*
D20*
X247812060Y-100587255D03*
D21*
X248621983Y-89291486D03*
D22*
X238214309Y-96083222D03*
X238629139Y-96017519D03*
D23*
X239294783Y-99708837D03*
X239486159Y-93310120D03*
X244577381Y-101099578D03*
D24*
X243646595Y-95222833D03*
D23*
X245360637Y-89808032D03*
D22*
X248664051Y-94428147D03*
X249078881Y-94362444D03*
%TD*%
D20*
%TO.C,S33*%
X239032358Y-118987234D03*
D21*
X239223735Y-112588518D03*
D20*
X250784315Y-119353331D03*
D21*
X251594238Y-108057562D03*
D22*
X241186564Y-114849298D03*
X241601394Y-114783595D03*
D23*
X242267038Y-118474913D03*
X242458414Y-112076196D03*
X247549636Y-119865654D03*
D24*
X246618850Y-113988909D03*
D23*
X248332892Y-108574108D03*
D22*
X251636306Y-113194223D03*
X252051136Y-113128520D03*
%TD*%
M02*
